<svg xmlns="http://www.w3.org/2000/svg" xmlns:svg="http://www.w3.org/2000/svg" xmlns:xlink="http://www.w3.org/1999/xlink" id="Layer_1" width="1440" height="960" x="0" y="0" enable-background="new 0 0 1440 960" version="1.1" viewBox="0 0 1440 960" xml:space="preserve"><metadata id="metadata3911"/><rect id="rect3625" width="1440" height="961.062" fill="#034672"/><linearGradient id="SVGID_1_" x1="633.487" x2="696.151" y1="155.333" y2="155.333" gradientTransform="matrix(1 0 0 1 -106 -219.5)" gradientUnits="userSpaceOnUse"><stop style="stop-color:#fefefe" id="stop3628" offset="0"/><stop style="stop-color:#f4f5f4" id="stop3630" offset=".145"/><stop style="stop-color:#dadcdb" id="stop3632" offset=".684"/><stop style="stop-color:#cfd1d1" id="stop3634" offset="1"/></linearGradient><linearGradient id="SVGID_2_" x1="859.527" x2="851.254" y1="475.581" y2="475.581" gradientTransform="matrix(1 0 0 -1 -300 412)" gradientUnits="userSpaceOnUse"><stop style="stop-color:#e6e6e6" id="stop3639" offset="0"/><stop style="stop-color:#b3b4b4" id="stop3641" offset="1"/></linearGradient><linearGradient id="SVGID_3_" x1="466.344" x2="473.344" y1="-243.916" y2="-224.415" gradientTransform="matrix(1 0 0 -1 88 -301.5)" gradientUnits="userSpaceOnUse"><stop style="stop-color:#f6f6f6" id="stop3646" offset="0"/><stop style="stop-color:#b3b4b4" id="stop3648" offset="1"/></linearGradient><linearGradient id="SVGID_4_" x1="643.303" x2="674.138" y1="149.549" y2="141.882" gradientTransform="matrix(1 0 0 1 -106 -219.5)" gradientUnits="userSpaceOnUse"><stop style="stop-color:#b8d7e8" id="stop3665" offset="0"/><stop style="stop-color:#cce3f1" id="stop3667" offset=".332"/><stop style="stop-color:#daebf8" id="stop3669" offset=".694"/><stop style="stop-color:#e0eef9" id="stop3671" offset="1"/></linearGradient><linearGradient id="SVGID_5_" x1="646.264" x2="654.889" y1="125.378" y2="167.628" gradientTransform="matrix(1 0 0 1 -106 -219.5)" gradientUnits="userSpaceOnUse"><stop style="stop-color:#f1f9fe" id="stop3676" offset="0"/><stop style="stop-color:#e9f5fd" id="stop3678" offset=".425"/><stop style="stop-color:#e4f3fc" id="stop3680" offset="1"/></linearGradient><linearGradient id="SVGID_6_" x1="750.848" x2="750.848" y1="124.703" y2="180.05" gradientTransform="matrix(1 0 0 1 -106 -219.5)" gradientUnits="userSpaceOnUse"><stop style="stop-color:#055f94" id="stop3691" offset="0"/><stop style="stop-color:#004a77" id="stop3693" offset=".591"/><stop style="stop-color:#054167" id="stop3695" offset="1"/></linearGradient><linearGradient id="SVGID_7_" x1="784.473" x2="784.473" y1="124.703" y2="180.049" gradientTransform="matrix(1 0 0 1 -106 -219.5)" gradientUnits="userSpaceOnUse"><stop style="stop-color:#055f94" id="stop3700" offset="0"/><stop style="stop-color:#004a77" id="stop3702" offset=".591"/><stop style="stop-color:#054167" id="stop3704" offset="1"/></linearGradient><linearGradient id="SVGID_8_" x1="815.56" x2="815.56" y1="124.703" y2="180.05" gradientTransform="matrix(1 0 0 1 -106 -219.5)" gradientUnits="userSpaceOnUse"><stop style="stop-color:#055f94" id="stop3709" offset="0"/><stop style="stop-color:#004a77" id="stop3711" offset=".591"/><stop style="stop-color:#054167" id="stop3713" offset="1"/></linearGradient><linearGradient id="SVGID_9_" x1="866.309" x2="866.309" y1="124.703" y2="180.051" gradientTransform="matrix(1 0 0 1 -106 -219.5)" gradientUnits="userSpaceOnUse"><stop style="stop-color:#055f94" id="stop3718" offset="0"/><stop style="stop-color:#004a77" id="stop3720" offset=".591"/><stop style="stop-color:#054167" id="stop3722" offset="1"/></linearGradient><linearGradient id="SVGID_10_" x1="900.218" x2="900.218" y1="124.703" y2="180.05" gradientTransform="matrix(1 0 0 1 -106 -219.5)" gradientUnits="userSpaceOnUse"><stop style="stop-color:#055f94" id="stop3727" offset="0"/><stop style="stop-color:#004a77" id="stop3729" offset=".591"/><stop style="stop-color:#054167" id="stop3731" offset="1"/></linearGradient><linearGradient id="SVGID_11_" x1="721.273" x2="721.273" y1="124.703" y2="180.048" gradientTransform="matrix(1 0 0 1 -106 -219.5)" gradientUnits="userSpaceOnUse"><stop style="stop-color:#055f94" id="stop3736" offset="0"/><stop style="stop-color:#004a77" id="stop3738" offset=".591"/><stop style="stop-color:#054167" id="stop3740" offset="1"/></linearGradient><linearGradient id="SVGID_12_" x1="840.654" x2="840.654" y1="124.703" y2="180.05" gradientTransform="matrix(1 0 0 1 -106 -219.5)" gradientUnits="userSpaceOnUse"><stop style="stop-color:#055f94" id="stop3745" offset="0"/><stop style="stop-color:#004a77" id="stop3747" offset=".591"/><stop style="stop-color:#054167" id="stop3749" offset="1"/></linearGradient><linearGradient id="SVGID_13_" x1="935.441" x2="935.441" y1="124.703" y2="180.048" gradientTransform="matrix(1 0 0 1 -106 -219.5)" gradientUnits="userSpaceOnUse"><stop style="stop-color:#055f94" id="stop3754" offset="0"/><stop style="stop-color:#004a77" id="stop3756" offset=".591"/><stop style="stop-color:#054167" id="stop3758" offset="1"/></linearGradient><linearGradient id="SVGID_14_" x1="652.926" x2="652.926" y1="120.537" y2="130.705" gradientTransform="matrix(1 0 0 1 -106 -219.5)" gradientUnits="userSpaceOnUse"><stop style="stop-color:#01649b" id="stop3763" offset="0"/><stop style="stop-color:#03588b" id="stop3765" offset=".235"/><stop style="stop-color:#004e7c" id="stop3767" offset=".507"/><stop style="stop-color:#004873" id="stop3769" offset=".717"/><stop style="stop-color:#00446e" id="stop3771" offset="1"/></linearGradient><linearGradient id="SVGID_15_" x1="663.696" x2="663.696" y1="172.309" y2="172.309" gradientTransform="matrix(1 0 0 1 -106 -219.5)" gradientUnits="userSpaceOnUse"><stop style="stop-color:#f6f6f6" id="stop3786" offset="0"/><stop style="stop-color:#e4e4e3" id="stop3788" offset=".539"/><stop style="stop-color:#dadada" id="stop3790" offset="1"/></linearGradient><defs id="defs3794"><filter id="Adobe_OpacityMaskFilter" width="906.85" height="793.638" x="545.96" y="-353.609" filterUnits="userSpaceOnUse"><feColorMatrix id="feColorMatrix3797" type="matrix" values="1 0 0 0 0 0 1 0 0 0 0 0 1 0 0 0 0 0 1 0"/></filter><linearGradient id="SVGID_1_-3" x1="-189.849" x2="-127.186" y1="135.87" y2="135.87" gradientTransform="matrix(1,0,0,-1,194,182.5)" gradientUnits="userSpaceOnUse"><stop style="stop-color:#fdfdfd" id="stop5009" offset="0"/><stop style="stop-color:#f4f5f5" id="stop5011" offset=".145"/><stop style="stop-color:#d9dbdb" id="stop5013" offset=".684"/><stop style="stop-color:#cfd1d1" id="stop5015" offset="1"/></linearGradient><linearGradient id="SVGID_2_-6" x1="36.19" x2="27.917" y1="47.217" y2="47.217" gradientUnits="userSpaceOnUse"><stop style="stop-color:#e6e6e6" id="stop5020" offset="0"/><stop style="stop-color:#b2b3b3" id="stop5022" offset="1"/></linearGradient><linearGradient id="SVGID_3_-2" x1="-356.992" x2="-349.992" y1="766.713" y2="747.212" gradientTransform="translate(388,-713.5)" gradientUnits="userSpaceOnUse"><stop style="stop-color:#f6f6f6" id="stop5027" offset="0"/><stop style="stop-color:#b2b3b3" id="stop5029" offset="1"/></linearGradient><linearGradient id="SVGID_4_-3" x1="-180.033" x2="-149.199" y1="141.654" y2="149.321" gradientTransform="matrix(1,0,0,-1,194,182.5)" gradientUnits="userSpaceOnUse"><stop style="stop-color:#b8d7e9" id="stop5046" offset="0"/><stop style="stop-color:#cce3f1" id="stop5048" offset=".332"/><stop style="stop-color:#daebf7" id="stop5050" offset=".694"/><stop style="stop-color:#dfeef9" id="stop5052" offset="1"/></linearGradient><linearGradient id="SVGID_5_-0" x1="-177.073" x2="-168.448" y1="165.825" y2="123.575" gradientTransform="matrix(1,0,0,-1,194,182.5)" gradientUnits="userSpaceOnUse"><stop style="stop-color:#f1f9fe" id="stop5057" offset="0"/><stop style="stop-color:#e9f5fd" id="stop5059" offset=".425"/><stop style="stop-color:#e4f3fd" id="stop5061" offset="1"/></linearGradient><linearGradient id="SVGID_14_-3" x1="-170.411" x2="-170.411" y1="170.666" y2="160.498" gradientTransform="matrix(1,0,0,-1,194,182.5)" gradientUnits="userSpaceOnUse"><stop style="stop-color:#00639a" id="stop5146" offset="0"/><stop style="stop-color:#00578a" id="stop5148" offset=".235"/><stop style="stop-color:#004d7b" id="stop5150" offset=".507"/><stop style="stop-color:#004773" id="stop5152" offset=".717"/><stop style="stop-color:#00446e" id="stop5154" offset="1"/></linearGradient><linearGradient id="SVGID_15_-4" x1="-159.641" x2="-159.641" y1="118.894" y2="118.894" gradientTransform="matrix(1,0,0,-1,194,182.5)" gradientUnits="userSpaceOnUse"><stop style="stop-color:#f6f6f6" id="stop5169" offset="0"/><stop style="stop-color:#e4e4e4" id="stop5171" offset=".539"/><stop style="stop-color:#dadada" id="stop5173" offset="1"/></linearGradient><linearGradient id="linearGradient5331" x1="-159.641" x2="-159.641" y1="118.894" y2="118.894" gradientTransform="matrix(1,0,0,-1,194,182.5)" gradientUnits="userSpaceOnUse" xlink:href="#SVGID_15_-4"/></defs><mask id="SVGID_16_" width="906.85" height="793.638" x="545.96" y="-353.609" maskUnits="userSpaceOnUse"><g id="g3800" filter="url(#Adobe_OpacityMaskFilter)"><polygon id="polygon3802" fill="#FFF" points="1452.81 -170.972 636.18 -353.609 545.96 -16.261 1452.81 440.028"/></g></mask><linearGradient id="SVGID_17_" x1="624.243" x2="1695.763" y1="-457.793" y2="582.407" gradientUnits="userSpaceOnUse"><stop style="stop-color:#fff" id="stop3805" offset="0"/><stop style="stop-color:#000" id="stop3807" offset="1"/></linearGradient><polygon id="polygon3809" fill="url(#SVGID_17_)" points="1452.81 -170.972 636.18 -353.609 545.96 -16.261 1452.81 440.028" mask="url(#SVGID_16_)" opacity=".04"/><defs id="defs3811"><filter id="Adobe_OpacityMaskFilter_1_" width="942.603" height="465.304" x="-148.385" y="185.369" filterUnits="userSpaceOnUse"><feColorMatrix id="feColorMatrix3814" type="matrix" values="1 0 0 0 0 0 1 0 0 0 0 0 1 0 0 0 0 0 1 0"/></filter></defs><mask id="SVGID_18_" width="942.603" height="465.304" x="-148.385" y="185.369" maskUnits="userSpaceOnUse"><g id="g3817" filter="url(#Adobe_OpacityMaskFilter_1_)"><linearGradient id="SVGID_19_" x1="-10.378" x2="353.622" y1="93.805" y2="493.805" gradientUnits="userSpaceOnUse"><stop style="stop-color:#fff" id="stop3820" offset="0"/><stop style="stop-color:#000" id="stop3822" offset="1"/></linearGradient><path id="path3824" fill="url(#SVGID_19_)" d="M-142.385,456.954c241.188-37.587,535.834,12.111,710.251,193.719L737.183,407.09 c-240.655-239.438-582.089-236.892-847.54-208.783L-142.385,456.954z"/></g></mask><path id="path3826" fill="#010202" d="M-148.385,456.954c241.188-37.587,535.834,12.111,710.251,193.719 l232.352-172.074c-21.068-27.212-43.2-52.042-66.242-74.679C487.503,167.675,147.918,170.322-116.357,198.307L-148.385,456.954z" mask="url(#SVGID_18_)" opacity=".1"/><defs id="defs3828"><filter id="Adobe_OpacityMaskFilter_2_" width="287.402" height="1042.099" x="-50.702" y="-58.489" filterUnits="userSpaceOnUse"><feColorMatrix id="feColorMatrix3831" type="matrix" values="1 0 0 0 0 0 1 0 0 0 0 0 1 0 0 0 0 0 1 0"/></filter></defs><mask id="SVGID_20_" width="287.402" height="1042.099" x="-50.702" y="-58.489" maskUnits="userSpaceOnUse"><g id="g3834" filter="url(#Adobe_OpacityMaskFilter_2_)"><linearGradient id="SVGID_21_" x1="150.823" x2="44.824" y1="980.055" y2="580.056" gradientUnits="userSpaceOnUse"><stop style="stop-color:#fff" id="stop3837" offset="0"/><stop style="stop-color:#000" id="stop3839" offset="1"/></linearGradient><path id="path3841" fill="url(#SVGID_21_)" d="M87.395-16.937c0,163.962,24.356,750.233,149.306,1000.547l-287.402-6.396V-58.489 L87.395-16.937z" opacity=".1"/></g></mask><path id="path3843" fill="#010202" d="M87.395-16.937c0,163.962,24.356,750.233,149.306,1000.547l-287.402-6.396V-58.489 L87.395-16.937z" mask="url(#SVGID_20_)"/><defs id="defs3845"><filter id="Adobe_OpacityMaskFilter_3_" width="1622.238" height="1285.796" x="-72.785" y="-491.193" filterUnits="userSpaceOnUse"><feFlood style="flood-color:white;flood-opacity:1" id="feFlood3848" result="back"/><feBlend id="feBlend3850" in="SourceGraphic" in2="back" mode="normal"/></filter></defs><mask id="SVGID_22_" width="1622.238" height="1285.796" x="-72.785" y="-491.193" maskUnits="userSpaceOnUse"><g id="g3853" filter="url(#Adobe_OpacityMaskFilter_3_)"><defs id="defs3855"><filter id="Adobe_OpacityMaskFilter_4_" width="1622.238" height="1285.089" x="-72.785" y="-491.193" filterUnits="userSpaceOnUse"><feFlood style="flood-color:white;flood-opacity:1" id="feFlood3858" result="back"/><feBlend id="feBlend3860" in="SourceGraphic" in2="back" mode="normal"/></filter></defs><linearGradient id="SVGID_23_" x1="814.315" x2="2094.315" y1="328.028" y2="-719.972" gradientUnits="userSpaceOnUse"><stop style="stop-color:#fff" id="stop3867" offset="0"/><stop style="stop-color:#000" id="stop3869" offset="1"/></linearGradient><path id="path3871" fill="url(#SVGID_23_)" d="M-72.785,410.758c848.81,35.016,1323.22-295.517,1502.614-901.951 c-4.743,181.709,37.787,453.373,93.752,548.953c47.774,81.209,23.788,158.081-26.479,241.24 C975.882,1160.862,493.92,627.783-29.659,661.768" mask="url(#SVGID_22_)"/></g></mask><path id="path3873" fill="#FFF" d="M-72.785,410.758c848.81,35.016,1323.22-295.517,1502.614-901.951 C1425.086-309.484,1467.616-36.58,1523.581,59c47.774,81.209,23.788,158.081-26.479,241.24 C975.882,1162.103,493.92,627.783-29.659,661.768" opacity=".02"/><defs id="defs3875"><filter id="Adobe_OpacityMaskFilter_5_" width="1160.942" height="1025.949" x="310.575" y="-10.889" filterUnits="userSpaceOnUse"><feColorMatrix id="feColorMatrix3878" type="matrix" values="1 0 0 0 0 0 1 0 0 0 0 0 1 0 0 0 0 0 1 0"/></filter></defs><mask id="SVGID_24_" width="1160.942" height="1025.949" x="310.575" y="-10.889" maskUnits="userSpaceOnUse"><g id="g3881" filter="url(#Adobe_OpacityMaskFilter_5_)"><linearGradient id="SVGID_25_" x1="679.037" x2="1525.036" y1="906.784" y2="270.784" gradientUnits="userSpaceOnUse"><stop style="stop-color:#fff" id="stop3884" offset="0"/><stop style="stop-color:#000" id="stop3886" offset="1"/></linearGradient><path id="path3888" fill="url(#SVGID_25_)" d="M1453.518,979.062l18-989.951h-442.43L310.575,1015.06L1453.518,979.062z" opacity=".06"/></g></mask><path id="path3890" fill="#010202" d="M1453.518,979.062l18-989.951h-442.43L310.575,1015.06L1453.518,979.062z" mask="url(#SVGID_24_)"/><defs id="defs3892"><filter id="Adobe_OpacityMaskFilter_6_" width="841.456" height="736.356" x="-90.392" y="-409.996" filterUnits="userSpaceOnUse"><feColorMatrix id="feColorMatrix3895" type="matrix" values="1 0 0 0 0 0 1 0 0 0 0 0 1 0 0 0 0 0 1 0"/></filter></defs><mask id="SVGID_26_" width="841.456" height="736.356" x="-90.392" y="-409.996" maskUnits="userSpaceOnUse"><g id="g3898" filter="url(#Adobe_OpacityMaskFilter_6_)"><linearGradient id="SVGID_27_" x1="258.938" x2="418.936" y1="-348.322" y2="467.675" gradientUnits="userSpaceOnUse"><stop style="stop-color:#fff" id="stop3901" offset="0"/><stop style="stop-color:#000" id="stop3903" offset="1"/></linearGradient><path id="path3905" fill="url(#SVGID_27_)" d="M746.367-163.7c-72.229,10.651-98.964,78.571-50.732,125.772 c90.98,89.101,60.661,179.447-23.771,195.806c-108.654,20.943-167.397-74.289-289.375-28.11 c-34.924,13.221-61.272,57.631-55.681,97.377C343.71,348.214,196.545,386.71-87.566,178.743 c-28.532-20.897,168.378-588.739,168.378-588.739L746.367-163.7z"/></g></mask><path id="path3907" d="M746.367-163.7c-72.229,10.651-98.964,78.571-50.732,125.772 c90.98,89.101,60.661,179.447-23.771,195.806c-108.654,20.943-167.397-74.289-289.375-28.11 c-34.924,13.221-61.272,57.631-55.681,97.377C343.71,348.214,196.545,386.71-87.566,178.743 c-28.532-20.897,168.378-588.739,168.378-588.739L746.367-163.7z" mask="url(#SVGID_26_)" opacity=".1"/><g id="g5246" transform="matrix(11.919865,0,0,11.919865,546.22203,27.387087)" style="opacity:.1"><path style="fill:url(#SVGID_1_-3)" id="path5017" d="m 66.814,34.438 c -7.205,5 -14.688,3.682 -23.183,-3.358 -4.897,-4.059 -11.15,-2.771 -15.411,-1.454 -2.648,0.82 -6.324,0.744 -9.518,0.075 -13.978,-2.93 -10.929,6.038 -8.339,14.015 4.757,14.64 -3.236,18.031 -5.983,12.815 -1.766,6.615 7.138,8.572 10.937,7.701 6.006,-1.377 14.051,-2.153 19.043,-0.627 9.544,2.916 13.125,0.513 11.542,-2.57 -0.52,-1.012 -0.229,-2.446 0.583,-3.126 2.834,-2.374 5.295,-0.373 8.007,-1.947 2.108,-1.226 2.077,-3.927 -1.19,-5.463 -1.731,-0.813 -1.649,-2.881 0.184,-3.84 3.73,-1.952 8.75,-1.036 10,-5.138 0.447,-1.469 1.699,-5.159 3.328,-7.083 z"/><path style="fill:url(#SVGID_2_-6)" id="path5024" d="m 30.861,32.645 c 0,4.983 0.741,22.798 4.538,30.405 L 26.665,62.856 V 31.383 l 4.196,1.262 z"/><path style="fill:url(#SVGID_3_-2)" id="path5031" d="M 11.234,44.396 C 8.472,36.938 4.725,27.771 18.703,30.701 c 3.193,0.669 6.869,0.745 9.518,-0.075 4.261,-1.317 9.972,-2.444 14.514,1.521 8.875,7.748 16.875,8.292 24.08,3.292 -1.63,1.924 -3.106,5.563 -3.33,7.083 -0.189,1.293 -1.134,1.873 -2.382,2.379 C 42.584,52.42 45.709,39.594 39.751,35.42 36.593,33.206 32.018,33.33 28.504,34.608 25.333,35.761 22.067,35.472 18.671,34.212 13.004,32.105 9.196,33.217 11.234,44.396 z"/><g style="opacity:.75" id="g5033"><path style="fill:#fff" id="path5035" d="m 35.561,30.336 c 2.719,0 4.941,0.747 6.795,2.284 5.541,4.592 10.63,6.823 15.557,6.823 1.473,0 2.934,-0.206 4.373,-0.615 -0.317,0.854 -0.559,1.602 -0.714,2.111 -0.432,1.414 -1.598,1.811 -4.357,2.437 -1.463,0.332 -3.121,0.708 -4.656,1.513 -1.577,0.824 -2.536,2.322 -2.503,3.908 0.032,1.51 0.928,2.822 2.396,3.514 1.153,0.541 1.478,1.135 1.487,1.373 0.012,0.26 -0.343,0.487 -0.45,0.551 -0.597,0.346 -1.181,0.412 -2.051,0.412 -0.16,0 -0.321,-0.002 -0.482,-0.004 -0.179,-0.002 -0.356,-0.004 -0.535,-0.004 -1.632,0 -3.393,0.211 -5.219,1.74 -1.545,1.294 -2.019,3.742 -1.078,5.573 0.137,0.267 0.141,0.405 0.149,0.407 -0.093,0.127 -0.771,0.567 -2.586,0.567 -1.776,0 -4.107,-0.426 -6.741,-1.229 -2.005,-0.613 -4.512,-0.924 -7.451,-0.924 -3.827,0 -8.428,0.553 -12.624,1.515 -0.412,0.094 -0.934,0.144 -1.509,0.144 -1.875,0 -4.187,-0.543 -5.673,-1.594 1.674,-0.011 3.264,-0.886 4.366,-2.404 1.341,-1.844 3.15,-6.289 0.213,-15.33 l -0.081,-0.25 C 10.909,38.918 9.317,34.02 10.646,32.191 11.154,31.492 12.282,31.138 14,31.138 c 1.188,0 2.632,0.177 4.295,0.525 1.76,0.369 3.618,0.563 5.375,0.563 1.944,0 3.676,-0.231 5.144,-0.686 1.664,-0.519 4.176,-1.204 6.747,-1.204 m 0,-2 c -2.663,0 -5.243,0.641 -7.34,1.29 -1.324,0.41 -2.904,0.596 -4.553,0.596 -1.649,0 -3.367,-0.187 -4.965,-0.521 -1.854,-0.389 -3.409,-0.568 -4.704,-0.568 -8.474,0 -5.881,7.664 -3.635,14.583 3.376,10.394 0.327,15.117 -2.708,15.117 -1.241,0 -2.479,-0.789 -3.276,-2.302 -1.506,5.643 4.751,7.896 8.98,7.896 0.729,0 1.397,-0.067 1.956,-0.194 C 19,63.389 23.45,62.77 27.493,62.77 c 2.549,0 4.936,0.246 6.866,0.836 3.037,0.929 5.472,1.318 7.326,1.318 3.975,0 5.295,-1.785 4.216,-3.888 -0.52,-1.013 -0.229,-2.446 0.583,-3.126 1.375,-1.152 2.663,-1.274 3.935,-1.274 0.34,0 0.679,0.009 1.018,0.009 1.005,0 2.011,-0.076 3.055,-0.682 2.108,-1.227 2.077,-3.927 -1.19,-5.463 -1.731,-0.814 -1.649,-2.881 0.184,-3.84 3.73,-1.952 8.75,-1.036 10,-5.139 0.448,-1.47 1.7,-5.159 3.33,-7.083 -2.906,2.017 -5.857,3.005 -8.902,3.005 -4.504,0 -9.211,-2.163 -14.28,-6.364 -2.489,-2.06 -5.325,-2.743 -8.073,-2.743 l 0,0 z m 31.253,6.102 h 0.005 -0.005 z"/></g><line style="fill:none;stroke:#fff;stroke-width:3.5;stroke-miterlimit:10" id="line5037" x1="28.504" x2="28.504" y1="63.161" y2="31.938" stroke-miterlimit="10"/><path style="fill:none;stroke:#034672;stroke-width:2;stroke-linecap:round;stroke-linejoin:round;stroke-miterlimit:10" id="path5039" stroke-miterlimit="10" d="m 66.814,34.438 c -7.205,5 -14.688,3.682 -23.183,-3.358 -4.897,-4.059 -11.15,-2.771 -15.411,-1.454 -2.648,0.82 -6.324,0.744 -9.518,0.075 -13.978,-2.93 -10.929,6.038 -8.339,14.015 4.757,14.64 -3.236,18.031 -5.983,12.815 -1.766,6.615 7.138,8.572 10.937,7.701 6.006,-1.377 14.051,-2.153 19.043,-0.627 9.544,2.916 13.125,0.513 11.542,-2.57 -0.52,-1.012 -0.229,-2.446 0.583,-3.126 2.834,-2.374 5.295,-0.373 8.007,-1.947 2.108,-1.226 2.077,-3.927 -1.19,-5.463 -1.731,-0.813 -1.649,-2.881 0.184,-3.84 3.73,-1.952 8.75,-1.036 10,-5.138 0.447,-1.469 1.699,-5.159 3.328,-7.083 z"/><path style="fill:#034672" id="path5041" d="M 11.234,43.396 C 8.472,35.938 4.725,26.771 18.703,29.701 c 3.193,0.669 6.869,0.745 9.518,-0.075 4.261,-1.317 9.972,-2.444 14.514,1.521 8.875,7.748 16.875,8.292 24.08,3.292 -1.63,1.924 -3.106,5.563 -3.33,7.083 -0.189,1.293 -1.116,1.916 -2.382,2.379 C 47.984,48.696 46.979,38.414 41.021,34.236 37.863,32.022 32.018,32.328 28.504,33.606 25.333,34.759 22.067,34.47 18.671,33.21 13.004,31.105 9.196,32.217 11.234,43.396 z"/><path style="fill:#fff" id="path5043" d="M 33.485,8.753 C 32.433,8.159 29.211,6.141 28.406,5.689 27.6,5.236 25.683,3.808 23.587,3.808 c -2.096,0 -4.014,1.428 -4.819,1.881 -0.805,0.452 -4.027,2.471 -5.079,3.064 -0.805,0.454 -3.724,2.037 -3.724,6.34 0,1.309 0,3.564 0,4.521 0,2.843 1.597,4.979 4.479,6.44 0.983,0.499 1.762,1.329 1.762,3.468 0,0.943 0.352,1.161 0.918,1.161 h 0.68 c 0.625,0 0.965,0.235 0.965,1.256 0,0.562 0,2.062 0,2.062 v 37.2 l 2.713,2.779 h 1.244 l 5.682,-5.819 v -34.16 c 0,0 0,-1.5 0,-2.062 0,-1.021 0.34,-1.256 0.965,-1.256 h 0.68 c 0.566,0 0.918,-0.218 0.918,-1.161 0,-2.139 0.778,-2.969 1.762,-3.468 2.882,-1.462 4.479,-3.598 4.479,-6.44 0,-0.956 0,-3.212 0,-4.521 C 37.209,10.79 34.29,9.207 33.485,8.753 z"/><path style="fill:url(#SVGID_4_-3)" id="path5054" d="M 33.485,8.753 C 32.433,8.159 29.211,6.141 28.406,5.689 27.6,5.236 25.683,3.808 23.587,3.808 v 69.29 l 4.819,-4.936 v -34.16 c 0,0 0,-1.5 0,-2.062 0,-1.021 0.34,-1.256 0.965,-1.256 h 0.68 c 0.566,0 0.918,-0.218 0.918,-1.161 0,-2.139 0.778,-2.969 1.762,-3.468 2.882,-1.462 4.479,-3.598 4.479,-6.44 0,-0.956 0,-3.212 0,-4.521 C 37.209,10.79 34.29,9.207 33.485,8.753 z"/><path style="fill:url(#SVGID_5_-0)" id="path5063" d="m 23.587,3.808 c -2.097,0 -4.014,1.428 -4.819,1.881 -0.805,0.452 -4.027,2.471 -5.079,3.064 -0.805,0.454 -3.724,2.037 -3.724,6.34 0,1.309 0,3.564 0,4.521 0,2.843 1.597,4.979 4.479,6.44 0.983,0.499 1.762,1.329 1.762,3.468 0,0.943 0.352,1.161 0.918,1.161 h 0.68 c 0.625,0 0.965,0.235 0.965,1.256 0,0.562 0,2.062 0,2.062 v 37.2 l 2.713,2.779 h 1.244 l 0.862,-0.883 -0.001,-69.289 0,0 z"/><path style="fill:none;stroke:#fff;stroke-width:2;stroke-miterlimit:10" id="path5065" stroke-miterlimit="10" d="m 23.297,3.808 c 1.908,0.938 3.431,1.966 4.236,2.419 0.805,0.452 4.027,2.471 5.079,3.064 0.805,0.454 3.724,2.037 3.724,6.34 0,1.309 0,2.806 0,3.762 0,2.843 -1.597,4.979 -4.479,6.44 -0.983,0.499 -1.762,1.431 -1.762,3.569 v 1.238"/><path style="fill:none;stroke:#034672;stroke-width:2;stroke-miterlimit:10" id="path5067" stroke-miterlimit="10" d="M 33.485,8.753 C 32.433,8.159 29.211,6.141 28.406,5.689 27.6,5.236 25.683,3.808 23.587,3.808 c -2.096,0 -4.014,1.428 -4.819,1.881 -0.805,0.452 -4.027,2.471 -5.079,3.064 -0.805,0.454 -3.724,2.037 -3.724,6.34 0,1.309 0,3.564 0,4.521 0,2.843 1.597,4.979 4.479,6.44 0.983,0.499 1.762,1.329 1.762,3.468 0,0.943 0.352,1.161 0.918,1.161 h 0.68 c 0.625,0 0.965,0.235 0.965,1.256 0,0.562 0,2.062 0,2.062 v 37.2 l 2.713,2.779 h 1.244 l 5.682,-5.819 v -34.16 c 0,0 0,-1.5 0,-2.062 0,-1.021 0.34,-1.256 0.965,-1.256 h 0.68 c 0.566,0 0.918,-0.218 0.918,-1.161 0,-2.139 0.778,-2.969 1.762,-3.468 2.882,-1.462 4.479,-3.598 4.479,-6.44 0,-0.956 0,-3.212 0,-4.521 C 37.209,10.79 34.29,9.207 33.485,8.753 z"/><path style="fill:#e9f6fe;stroke:#034672;stroke-width:2;stroke-miterlimit:10" id="path5069" stroke-miterlimit="10" d="M 38.406,34.001"/><polygon style="fill:url(#SVGID_14_-3)" id="polygon5156" points="23.589 20.501 33.641 15.443 32.641 11.704 23.589 13.729 14.537 11.704 13.537 15.443"/><polyline style="opacity:.20000000000000001" id="polyline5158" points="23.589 20.501 33.641 15.443 32.641 11.704 23.589 13.729" enable-background="new"/><path style="fill:#034672" id="path5160" d="m 18.671,33.209 c 3.396,1.261 6.662,1.55 9.833,0.396 l -0.283,-2.223 c -2.648,0.82 -6.324,0.744 -9.518,0.075 l -0.032,1.752 z"/><path style="fill:#034672" id="path5162" d="m 23.316,32.856 c -0.403,2.757 1.896,4.707 1.896,7.619 3.849,-4.335 -1.073,-5.797 -1.896,-7.619 z"/><path style="fill:#034672" id="path5164" d="m 23.269,33.043 c -0.118,3.207 -0.402,5.581 -1.741,7.247 -2.419,-4.737 0.687,-6.32 1.741,-7.247 z"/><circle style="fill:#034672" id="circle5166" cx="23.297" cy="33.021" r="1.594" d="m 24.891001,33.021 c 0,0.880342 -0.713658,1.594 -1.594,1.594 -0.880342,0 -1.594,-0.713658 -1.594,-1.594 0,-0.880342 0.713658,-1.594 1.594,-1.594 0.880342,0 1.594,0.713658 1.594,1.594 z"/><path style="fill:url(#linearGradient5331)" id="path5175" d="M 34.359,63.605"/></g></svg>