<svg xmlns="http://www.w3.org/2000/svg" xmlns:svg="http://www.w3.org/2000/svg" xmlns:xlink="http://www.w3.org/1999/xlink" id="svg451" width="210mm" height="297mm" version="1.1" viewBox="0 0 210 297"><defs id="defs445"><marker id="TriangleOutM" orient="auto" refX="0" refY="0" style="overflow:visible"><path id="path1152" d="M 5.77,0.0 L -2.88,5.0 L -2.88,-5.0 L 5.77,0.0 z" transform="scale(0.4)" style="fill-rule:evenodd;stroke:#820000;stroke-width:1pt;stroke-opacity:1;fill:#820000;fill-opacity:1"/></marker><marker id="Arrow2Send" orient="auto" refX="0" refY="0" style="overflow:visible"><path id="path1040" d="M 8.7185878,4.0337352 L -2.2072895,0.016013256 L 8.7185884,-4.0017078 C 6.9730900,-1.6296469 6.9831476,1.6157441 8.7185878,4.0337352 z" transform="scale(0.3) rotate(180) translate(-2.3,0)" style="fill-rule:evenodd;stroke-width:.625;stroke-linejoin:round;stroke:#a30000;stroke-opacity:1;fill:#a30000;fill-opacity:1"/></marker><marker id="Arrow1Mend" orient="auto" refX="0" refY="0" style="overflow:visible"><path id="path1016" d="M 0.0,0.0 L 5.0,-5.0 L -12.5,0.0 L 5.0,5.0 L 0.0,0.0 z" transform="scale(0.4) rotate(180) translate(10,0)" style="fill-rule:evenodd;stroke:#a30000;stroke-width:1pt;stroke-opacity:1;fill:#a30000;fill-opacity:1"/></marker><marker id="TriangleInM" orient="auto" refX="0" refY="0" style="overflow:visible"><path id="path1954" d="M 5.77,0.0 L -2.88,5.0 L -2.88,-5.0 L 5.77,0.0 z" transform="scale(-0.4)" style="fill-rule:evenodd;stroke:#595959;stroke-width:1pt;stroke-opacity:1;fill:#595959;fill-opacity:1"/></marker><marker id="Arrow2Mstart" orient="auto" refX="0" refY="0" style="overflow:visible"><path id="path1842" d="M 8.7185878,4.0337352 L -2.2072895,0.016013256 L 8.7185884,-4.0017078 C 6.9730900,-1.6296469 6.9831476,1.6157441 8.7185878,4.0337352 z" transform="scale(0.6) translate(0,0)" style="fill-rule:evenodd;stroke-width:.625;stroke-linejoin:round;stroke:#595959;stroke-opacity:1;fill:#595959;fill-opacity:1"/></marker><marker id="Arrow2Sstart" orient="auto" refX="0" refY="0" style="overflow:visible"><path id="path1848" d="M 8.7185878,4.0337352 L -2.2072895,0.016013256 L 8.7185884,-4.0017078 C 6.9730900,-1.6296469 6.9831476,1.6157441 8.7185878,4.0337352 z" transform="scale(0.3) translate(-2.3,0)" style="fill-rule:evenodd;stroke-width:.625;stroke-linejoin:round;stroke:#595959;stroke-opacity:1;fill:#595959;fill-opacity:1"/></marker><marker style="overflow:visible" id="marker2708" orient="auto" refX="0" refY="0"><path style="fill:#595959;fill-opacity:1;fill-rule:evenodd;stroke:#595959;stroke-width:1.00000003pt;stroke-opacity:1" id="path2706" d="M 5.77,0 -2.88,5 V -5 Z" transform="scale(0.4)"/></marker><marker id="marker1348" orient="auto" refX="0" refY="0" style="overflow:visible"><path id="path1346" d="M 5.77,0 -2.88,5 V -5 Z" transform="scale(0.4)" style="fill:#595959;fill-opacity:1;fill-rule:evenodd;stroke:#595959;stroke-width:1.00000003pt;stroke-opacity:1"/></marker><marker style="overflow:visible" id="marker8292" orient="auto" refX="0" refY="0"><path style="fill:#595959;fill-opacity:1;fill-rule:evenodd;stroke:#595959;stroke-width:1.00000003pt;stroke-opacity:1" id="path8290" d="M 5.77,0 -2.88,5 V -5 Z" transform="scale(0.4)"/></marker><symbol id="icon-Icon_RH_Object_Gear-Single_RGB_Flat" viewBox="0 0 32 32"><title id="title63338">Icon_RH_Object_Gear-Single_RGB_Flat</title><path id="path63340" d="m 15.901,3.292 c -0.395,0 -0.955,0.034 -1.217,0.066 l -0.099,0 C 14.355,3.392 14.091,3.621 13.992,3.852 13.958,3.886 13.893,4.017 13.696,6.749 12.839,6.947 11.983,7.276 11.227,7.737 10.501,7.112 9.382,6.156 9.152,6.025 9.053,5.959 8.922,5.926 8.79,5.926 8.494,5.926 8.264,6.091 8.23,6.124 8.196,6.124 7.538,6.715 7.209,7.044 6.913,7.308 6.551,7.736 6.386,7.934 6.354,8 6.321,8 6.321,8.031 6.19,8.196 6.156,8.559 6.255,8.789 c 0,0.066 0.066,0.198 1.68,2.074 -0.561,0.857 -0.956,1.811 -1.219,2.832 -2.666,0.23 -2.798,0.262 -2.864,0.296 -0.23,0.099 -0.494,0.362 -0.494,0.593 l 0,0.132 c -0.032,0.263 -0.066,0.823 -0.066,1.217 0,0.462 0.066,1.35 0.066,1.384 l 0,0.032 c 0.034,0.198 0.165,0.625 0.559,0.691 0.297,0.066 2.042,0.197 2.798,0.264 0.286,1.125 0.727,2.112 1.308,3.001 -1.669,1.904 -1.702,2.003 -1.734,2.068 -0.099,0.198 -0.099,0.559 0.065,0.757 0,0.032 0.032,0.066 0.066,0.099 0.198,0.197 0.56,0.625 0.823,0.888 0.329,0.296 0.988,0.889 1.021,0.922 0.032,0.032 0.262,0.197 0.559,0.197 0.131,0 0.264,-0.032 0.361,-0.099 0.232,-0.131 1.481,-1.218 2.14,-1.777 0.758,0.428 1.549,0.757 2.404,0.954 0.23,2.634 0.263,2.766 0.297,2.832 0.097,0.23 0.361,0.494 0.591,0.494 l 0.099,0 c 0.263,0.034 0.823,0.066 1.217,0.066 0.462,0 1.317,-0.066 1.317,-0.066 l 0.034,0 c 0.198,-0.034 0.625,-0.165 0.692,-0.56 0.066,-0.263 0.197,-1.909 0.262,-2.766 0.823,-0.197 1.646,-0.526 2.404,-0.954 0.626,0.56 1.909,1.613 2.14,1.777 0.099,0.067 0.23,0.099 0.362,0.099 0.296,0 0.526,-0.165 0.56,-0.197 0.034,0 0.692,-0.593 1.021,-0.922 0.296,-0.263 0.658,-0.691 0.823,-0.888 l 0.065,-0.099 c 0.131,-0.165 0.165,-0.527 0.066,-0.757 0,-0.066 -0.066,-0.165 -1.712,-2.106 0.593,-0.89 1.021,-1.91 1.284,-2.963 0.757,-0.067 2.503,-0.198 2.798,-0.263 0.363,-0.066 0.527,-0.462 0.559,-0.692 l 0,-0.032 c 0,-0.034 0.067,-0.922 0.067,-1.384 0,-0.395 -0.034,-0.954 -0.067,-1.217 l 0,-0.132 c -0.032,-0.23 -0.262,-0.494 -0.494,-0.593 -0.032,-0.034 -0.164,-0.099 -2.864,-0.296 -0.23,-0.988 -0.658,-1.943 -1.218,-2.832 1.613,-1.909 1.646,-2.008 1.68,-2.074 0.097,-0.197 0.097,-0.56 -0.067,-0.758 L 25.579,7.934 C 25.382,7.736 25.019,7.307 24.756,7.044 24.427,6.748 23.768,6.155 23.736,6.124 23.702,6.09 23.472,5.926 23.175,5.926 c -0.131,0 -0.262,0.033 -0.361,0.099 -0.23,0.131 -1.35,1.087 -2.074,1.712 C 19.983,7.309 19.127,6.948 18.271,6.749 18.205,5.992 18.073,4.214 18.008,3.917 17.942,3.556 17.547,3.392 17.317,3.358 l -0.034,0 c -0.034,0 -0.922,-0.066 -1.383,-0.066 z m 0.066,0.428 c 0.428,0 1.251,0.066 1.35,0.066 0.032,0 0.262,0.034 0.296,0.198 0.034,0.197 0.165,1.612 0.263,2.929 l 0,0.165 0.165,0.034 c 0.922,0.197 1.811,0.56 2.634,1.053 l 0.132,0.099 0.132,-0.099 c 1.152,-0.988 1.975,-1.68 2.14,-1.779 0.032,-0.032 0.066,-0.032 0.097,-0.032 0.099,0 0.232,0.066 0.264,0.099 0.099,0.097 0.692,0.625 0.988,0.92 0.263,0.264 0.626,0.692 0.791,0.89 l 0.065,0.065 c 0.032,0.032 0.032,0.198 0,0.296 -0.066,0.099 -0.527,0.724 -1.711,2.074 l -0.099,0.131 0.099,0.132 c 0.562,0.86 1.004,1.859 1.269,2.928 l 0.048,0.232 0.165,0 c 1.547,0.099 2.731,0.232 2.896,0.264 0.099,0.034 0.198,0.164 0.198,0.198 l 0,0.132 c 0.034,0.263 0.066,0.822 0.066,1.185 0,0.428 -0.066,1.252 -0.066,1.349 0,0.034 -0.034,0.263 -0.198,0.297 -0.23,0.032 -1.712,0.165 -2.896,0.264 l -0.165,0 -0.034,0.165 c -0.263,1.119 -0.692,2.172 -1.35,3.128 l -0.097,0.131 0.097,0.131 c 0.956,1.152 1.646,1.975 1.745,2.108 0.034,0.099 0.034,0.264 0,0.296 l -0.066,0.099 c -0.165,0.198 -0.527,0.625 -0.789,0.889 -0.297,0.297 -0.922,0.856 -0.988,0.922 -0.034,0.034 -0.165,0.099 -0.264,0.099 -0.034,0 -0.065,0.001 -0.099,-0.033 -0.198,-0.099 -1.317,-1.053 -2.239,-1.843 l -0.132,-0.099 -0.132,0.099 c -0.789,0.46 -1.646,0.823 -2.567,1.02 l -0.165,0.033 0,0.165 c -0.099,1.185 -0.232,2.634 -0.264,2.864 -0.034,0.131 -0.263,0.198 -0.297,0.198 -0.131,0.032 -0.921,0.065 -1.349,0.065 -0.395,0 -0.922,-0.033 -1.185,-0.065 l -0.099,0 c -0.032,0 -0.165,-0.099 -0.197,-0.198 -0.034,-0.165 -0.132,-1.317 -0.23,-2.864 l 0,-0.165 -0.165,-0.033 c -0.89,-0.197 -1.779,-0.56 -2.569,-1.02 l -0.132,-0.099 -0.131,0.099 c -0.922,0.756 -2.04,1.712 -2.239,1.843 -0.032,0.034 -0.066,0.033 -0.099,0.033 -0.097,0 -0.23,-0.065 -0.262,-0.099 C 8.493,25.58 7.9,25.054 7.604,24.757 7.34,24.527 6.978,24.099 6.813,23.902 6.781,23.835 6.747,23.803 6.747,23.803 6.713,23.769 6.713,23.605 6.747,23.506 6.813,23.375 7.504,22.552 8.492,21.4 L 8.591,21.269 8.492,21.137 C 7.834,20.183 7.405,19.129 7.142,18.009 l -0.032,-0.165 -0.165,0 C 5.759,17.745 4.277,17.614 4.047,17.58 3.915,17.548 3.849,17.318 3.849,17.284 3.817,17.153 3.783,16.362 3.783,15.934 c 0,-0.395 0.033,-0.921 0.065,-1.185 l 0,-0.132 c 0,-0.032 0.099,-0.165 0.198,-0.197 0.165,-0.034 1.349,-0.132 2.898,-0.263 l 0.165,0 0.032,-0.165 c 0.23,-1.086 0.658,-2.074 1.285,-2.997 L 8.523,10.864 8.426,10.733 C 7.274,9.383 6.78,8.757 6.713,8.658 6.681,8.559 6.681,8.395 6.713,8.361 6.713,8.329 6.747,8.295 6.78,8.264 6.945,8.066 7.306,7.671 7.569,7.407 7.865,7.111 8.458,6.551 8.557,6.485 8.591,6.453 8.722,6.386 8.82,6.386 c 0.032,0 0.066,0 0.099,0.034 0.131,0.066 0.954,0.757 2.14,1.777 l 0.197,0.067 0.132,-0.099 C 12.211,7.671 13.1,7.309 14.022,7.112 l 0.165,-0.034 0,-0.165 c 0.131,-1.58 0.23,-2.765 0.262,-2.929 0.034,-0.099 0.165,-0.198 0.198,-0.198 l 0.131,0 C 15.042,3.752 15.601,3.72 15.964,3.72 Z m 0.034,9.383 c -1.581,0 -2.898,1.284 -2.898,2.898 0,1.579 1.284,2.896 2.898,2.896 0.005,0 0.011,0 0.017,0 1.59,0 2.879,-1.289 2.879,-2.879 0,-0.006 0,-0.012 0,-0.017 0,-1.58 -1.317,-2.897 -2.896,-2.897 z m 0,0.329 c 1.414,0 2.567,1.152 2.567,2.569 0,1.414 -1.152,2.567 -2.567,2.567 -1.416,0 -2.569,-1.152 -2.569,-2.567 0,-1.416 1.152,-2.569 2.569,-2.569 z" class="path1"/></symbol></defs><metadata id="metadata448"/><g id="layer1"><path id="path8288" d="M 64.953233,54.943361 H 120.22828" style="fill:none;fill-rule:evenodd;stroke:#595959;stroke-width:.52916664;stroke-linecap:round;stroke-linejoin:miter;stroke-miterlimit:4;stroke-dasharray:none;stroke-opacity:1;marker-end:url(#marker8292)"/><circle id="circle13793-9-8" cx="62.873" cy="55.515" r="3.969" style="fill:#595959;stroke-width:.1984375"/><path style="fill:none;fill-rule:evenodd;stroke:#595959;stroke-width:.5291667;stroke-linecap:round;stroke-linejoin:miter;stroke-miterlimit:4;stroke-dasharray:none;stroke-opacity:1;marker-start:url(#TriangleInM);marker-end:url(#marker1348)" id="path1344" d="M 120.15637,66.906692 H 83.255834 v 21.505104"/><use id="use4457" width="100%" height="100%" x="0" y="0" transform="matrix(0.12983637,0,0,0.12983637,121.6729,42.236424)" xlink:href="#icon-Icon_RH_Object_Gear-Single_RGB_Flat" style="fill:#7f7f7f;stroke-width:2.03782129"/><text style="font-style:normal;font-weight:400;font-size:10.58333302px;line-height:1.25;font-family:'DejaVu Sans';letter-spacing:0;word-spacing:0;fill:#000;fill-opacity:1;stroke:none;stroke-width:.26458332;-inkscape-font-specification:'DejaVu Sans';font-stretch:normal;font-variant:normal" id="text125" x="71.104" y="53.013" xml:space="preserve"><tspan id="tspan123" x="71.104" y="53.013" style="font-size:3.17499995px;fill:#595959;stroke-width:.26458332;-inkscape-font-specification:'DejaVu Sans';font-family:'DejaVu Sans';font-weight:400;font-style:normal;font-stretch:normal;font-variant:normal">Request with access token</tspan></text><text style="font-style:normal;font-variant:normal;font-weight:400;font-stretch:normal;font-size:10.58333302px;line-height:1.25;font-family:'DejaVu Sans';-inkscape-font-specification:'DejaVu Sans';letter-spacing:0;word-spacing:0;fill:#fff;fill-opacity:1;stroke:none;stroke-width:.26458332" id="text129" x="61.028" y="57.573" xml:space="preserve"><tspan id="tspan127" x="61.028" y="57.573" style="font-style:normal;font-variant:normal;font-weight:400;font-stretch:normal;font-size:5.64444447px;font-family:'DejaVu Sans';-inkscape-font-specification:'DejaVu Sans';fill:#fff;stroke-width:.26458332">1</tspan></text><g id="g1310" transform="matrix(0.26458333,0,0,0.26458333,14.269777,-61.946731)"><g id="g1275" transform="translate(-374.16328,189.52715)"><rect id="rect16327-42" width="250.468" height="51.471" x="544" y="394.625" style="fill:#0088ce;stroke-width:3.16739631"/><text id="text16331-5" x="564" y="424.726" xml:space="preserve" style="font-style:normal;font-variant:normal;font-weight:400;font-stretch:normal;line-height:0%;font-family:Overpass;-inkscape-font-specification:Overpass;text-align:start;text-anchor:start;fill:#fff"><tspan id="tspan16329-0" x="564" y="424.726" style="font-style:normal;font-variant:normal;font-weight:700;font-stretch:normal;font-size:16px;line-height:100%;font-family:Overpass;-inkscape-font-specification:'Overpass, Bold';font-variant-ligatures:none;font-variant-caps:normal;font-variant-numeric:normal;text-align:start;writing-mode:lr-tb;text-anchor:start">Red Hat Single Sign-On</tspan></text></g></g><circle style="fill:#595959;stroke-width:.1984375" id="circle956" cx="83.324" cy="66.999" r="3.969"/><path id="path958" d="m 149.10616,61.615022 h 37.95887 v 21.505104" style="fill:none;fill-rule:evenodd;stroke:#595959;stroke-width:.52916664;stroke-linecap:round;stroke-linejoin:miter;stroke-miterlimit:4;stroke-dasharray:none;stroke-opacity:1;marker-end:url(#marker1348)"/><circle id="circle983" cx="187.205" cy="61.379" r="3.969" style="fill:#595959;stroke-width:.1984375"/><text style="font-style:normal;font-weight:400;font-size:10.58333302px;line-height:1.25;font-family:sans-serif;letter-spacing:0;word-spacing:0;fill:#000;fill-opacity:1;stroke:none;stroke-width:.26458332" id="text989" x="81.486" y="69.059" xml:space="preserve"><tspan id="tspan987" x="81.486" y="69.059" style="font-size:5.64444447px;fill:#fff;stroke-width:.26458332">2</tspan></text><text style="font-style:normal;font-weight:400;font-size:10.58333302px;line-height:1.25;font-family:sans-serif;letter-spacing:0;word-spacing:0;fill:#000;fill-opacity:1;stroke:none;stroke-width:.26458332" id="text993" x="185.31" y="63.238" xml:space="preserve"><tspan id="tspan991" x="185.31" y="63.238" style="font-size:5.64444447px;fill:#fff;stroke-width:.26458332">3</tspan></text><text style="font-style:normal;font-weight:400;font-size:10.58333302px;line-height:1.25;font-family:sans-serif;letter-spacing:0;word-spacing:0;fill:#000;fill-opacity:1;stroke:none;stroke-width:.26458332" id="text144" x="124.017" y="77.239" xml:space="preserve"><tspan id="tspan142" x="124.017" y="77.239" style="font-size:3.17499995px;fill:#595959;stroke-width:.26458332">Admin Service</tspan></text><use style="fill:#7f7f7f;stroke-width:2.03782129" id="use146" width="100%" height="100%" x="0" y="0" transform="matrix(0.12983637,0,0,0.12983637,173.11305,79.046806)" xlink:href="#icon-Icon_RH_Object_Gear-Single_RGB_Flat"/><text style="font-style:normal;font-weight:400;font-size:10.58333302px;line-height:1.25;font-family:sans-serif;letter-spacing:0;word-spacing:0;fill:#595959;fill-opacity:1;stroke:none;stroke-width:.26458332" id="text150" x="176.716" y="114.364" xml:space="preserve"><tspan id="tspan148" x="176.716" y="114.364" style="font-size:3.17499995px;fill:#595959;stroke-width:.26458332">User Service</tspan></text><text style="font-style:normal;font-weight:400;font-size:3.17499995px;line-height:1.25;font-family:sans-serif;letter-spacing:0;word-spacing:0;fill:#595959;fill-opacity:1;stroke:none;stroke-width:.26458332" id="text154" x="150.86" y="55.216" xml:space="preserve"><tspan id="tspan152" x="150.86" y="55.216" style="fill:#595959;stroke-width:.26458332">Request with </tspan><tspan style="fill:#595959;stroke-width:.26458332" id="tspan156" x="150.86" y="59.184">downgraded token</tspan></text><text style="font-style:normal;font-weight:400;font-size:3.17499995px;line-height:1.25;font-family:sans-serif;letter-spacing:0;word-spacing:0;fill:#595959;fill-opacity:1;stroke:none;stroke-width:.26458332" id="text160" x="88.722" y="64.811" xml:space="preserve"><tspan id="tspan158" x="88.722" y="64.811" style="fill:#595959;stroke-width:.26458332">Downgrade token</tspan></text><path style="fill:none;fill-rule:evenodd;stroke:#820000;stroke-width:.5291667;stroke-linecap:round;stroke-linejoin:miter;stroke-miterlimit:4;stroke-dasharray:none;stroke-opacity:1;marker-end:url(#TriangleOutM)" id="path164" d="M 174.00836,98.693752 H 136.04949 V 81.421975"/><text style="font-style:normal;font-weight:400;font-size:3.17499995px;line-height:1.25;font-family:sans-serif;letter-spacing:0;word-spacing:0;fill:#820000;fill-opacity:1;stroke:none;stroke-width:.26458332" id="text1475" x="145.717" y="103.23" xml:space="preserve"><tspan id="tspan1473" x="145.717" y="103.23" style="fill:#820000;stroke-width:.26458332">Forbidden</tspan></text></g></svg>