<svg xmlns="http://www.w3.org/2000/svg" xmlns:osb="http://www.openswatchbook.org/uri/2009/osb" xmlns:svg="http://www.w3.org/2000/svg" id="svg2" width="1346.288" height="704.8" version="1.1" viewBox="0 0 1346.288 704.8"><defs id="defs4"><marker style="overflow:visible" id="marker18397" orient="auto" refX="0" refY="0"><path style="fill:#595959;fill-opacity:1;fill-rule:evenodd;stroke:#595959;stroke-width:.625;stroke-linejoin:round;stroke-opacity:1" id="path18395" d="M 8.7185878,4.0337352 -2.2072895,0.01601326 8.7185884,-4.0017078 c -1.7454984,2.3720609 -1.7354408,5.6174519 -6e-7,8.035443 z" transform="matrix(-1.1,0,0,-1.1,-1.1,0)"/></marker><marker style="overflow:visible" id="marker16977" orient="auto" refX="0" refY="0"><path style="fill:#595959;fill-opacity:1;fill-rule:evenodd;stroke:#595959;stroke-width:.625;stroke-linejoin:round;stroke-opacity:1" id="path16975" d="M 8.7185878,4.0337352 -2.2072895,0.01601326 8.7185884,-4.0017078 c -1.7454984,2.3720609 -1.7354408,5.6174519 -6e-7,8.035443 z" transform="matrix(-1.1,0,0,-1.1,-1.1,0)"/></marker><marker id="marker14008" orient="auto" refX="0" refY="0" style="overflow:visible"><path id="path14006" d="M 8.7185878,4.0337352 -2.2072895,0.01601326 8.7185884,-4.0017078 c -1.7454984,2.3720609 -1.7354408,5.6174519 -6e-7,8.035443 z" transform="matrix(-1.1,0,0,-1.1,-1.1,0)" style="fill:#595959;fill-opacity:1;fill-rule:evenodd;stroke:#595959;stroke-width:.625;stroke-linejoin:round;stroke-opacity:1"/></marker><marker id="marker13294" orient="auto" refX="0" refY="0" style="overflow:visible"><path id="path13292" d="M 8.7185878,4.0337352 -2.2072895,0.01601326 8.7185884,-4.0017078 c -1.7454984,2.3720609 -1.7354408,5.6174519 -6e-7,8.035443 z" transform="matrix(-1.1,0,0,-1.1,-1.1,0)" style="fill:#595959;fill-opacity:1;fill-rule:evenodd;stroke:#595959;stroke-width:.625;stroke-linejoin:round;stroke-opacity:1"/></marker><marker id="marker9332" orient="auto" refX="0" refY="0" style="overflow:visible"><path id="path9330" d="M 8.7185878,4.0337352 -2.2072895,0.01601326 8.7185884,-4.0017078 c -1.7454984,2.3720609 -1.7354408,5.6174519 -6e-7,8.035443 z" transform="matrix(-1.1,0,0,-1.1,-1.1,0)" style="fill:#595959;fill-opacity:1;fill-rule:evenodd;stroke:#595959;stroke-width:.625;stroke-linejoin:round;stroke-opacity:1"/></marker><marker style="overflow:visible" id="marker8534" orient="auto" refX="0" refY="0"><path style="fill:#595959;fill-opacity:1;fill-rule:evenodd;stroke:#595959;stroke-width:.625;stroke-linejoin:round;stroke-opacity:1" id="path8532" d="M 8.7185878,4.0337352 -2.2072895,0.01601326 8.7185884,-4.0017078 c -1.7454984,2.3720609 -1.7354408,5.6174519 -6e-7,8.035443 z" transform="matrix(-1.1,0,0,-1.1,-1.1,0)"/></marker><marker id="marker7274" orient="auto" refX="0" refY="0" style="overflow:visible"><path id="path7272" d="M 8.7185878,4.0337352 -2.2072895,0.01601326 8.7185884,-4.0017078 c -1.7454984,2.3720609 -1.7354408,5.6174519 -6e-7,8.035443 z" transform="matrix(-1.1,0,0,-1.1,-1.1,0)" style="fill:#595959;fill-opacity:1;fill-rule:evenodd;stroke:#595959;stroke-width:.625;stroke-linejoin:round;stroke-opacity:1"/></marker><marker id="Arrow2Lend" orient="auto" refX="0" refY="0" style="overflow:visible"><path id="path1381" d="M 8.7185878,4.0337352 -2.2072895,0.01601326 8.7185884,-4.0017078 c -1.7454984,2.3720609 -1.7354408,5.6174519 -6e-7,8.035443 z" transform="matrix(-1.1,0,0,-1.1,-1.1,0)" style="fill:#595959;fill-opacity:1;fill-rule:evenodd;stroke:#595959;stroke-width:.625;stroke-linejoin:round;stroke-opacity:1"/></marker><linearGradient id="linearGradient17543" osb:paint="solid"><stop style="stop-color:#33c7e9;stop-opacity:1" id="stop17545" offset="0"/></linearGradient><marker style="overflow:visible" id="marker15435" orient="auto" refX="0" refY="0"><path style="fill:#595959;fill-opacity:1;fill-rule:evenodd;stroke:#595959;stroke-width:1.00000003pt;stroke-opacity:1" id="path15437" d="M 5.77,0 -2.88,5 V -5 Z" transform="scale(-0.4)"/></marker><marker id="marker10144" orient="auto" refX="0" refY="0" style="overflow:visible"><path id="path10146" d="M 5.77,0 -2.88,5 V -5 Z" transform="scale(-0.4)" style="fill:#595959;fill-opacity:1;fill-rule:evenodd;stroke:#595959;stroke-width:1.00000003pt;stroke-opacity:1"/></marker><marker id="TriangleOutM" orient="auto" refX="0" refY="0" style="overflow:visible"><path id="path10019" d="M 5.77,0 -2.88,5 V -5 Z" transform="scale(0.4)" style="fill:#595959;fill-opacity:1;fill-rule:evenodd;stroke:#595959;stroke-width:1.00000003pt;stroke-opacity:1"/></marker><marker id="marker10139" orient="auto" refX="0" refY="0" style="overflow:visible"><path id="path10010" d="M 5.77,0 -2.88,5 V -5 Z" transform="scale(-0.4)" style="fill:#595959;fill-opacity:1;fill-rule:evenodd;stroke:#595959;stroke-width:1.00000003pt;stroke-opacity:1"/></marker><marker id="TriangleInL" orient="auto" refX="0" refY="0" style="overflow:visible"><path id="path10007" d="M 5.77,0 -2.88,5 V -5 Z" transform="scale(-0.8)" style="fill:#595959;fill-opacity:1;fill-rule:evenodd;stroke:#595959;stroke-width:1.00000003pt;stroke-opacity:1"/></marker><marker id="Arrow1Send" orient="auto" refX="0" refY="0" style="overflow:visible"><path id="path9889" d="M 0,0 5,-5 -12.5,0 5,5 Z" transform="matrix(-0.2,0,0,-0.2,-1.2,0)" style="fill:#595959;fill-opacity:1;fill-rule:evenodd;stroke:#595959;stroke-width:1.00000003pt;stroke-opacity:1"/></marker><marker id="Arrow2Lstart" orient="auto" refX="0" refY="0" style="overflow:visible"><path id="path9892" d="M 8.7185878,4.0337352 -2.2072895,0.01601326 8.7185884,-4.0017078 c -1.7454984,2.3720609 -1.7354408,5.6174519 -6e-7,8.035443 z" transform="matrix(1.1,0,0,1.1,1.1,0)" style="fill:#595959;fill-opacity:1;fill-rule:evenodd;stroke:#595959;stroke-width:.625;stroke-linejoin:round;stroke-opacity:1"/></marker><marker style="overflow:visible" id="marker14851" orient="auto" refX="0" refY="0"><path style="fill:#595959;fill-opacity:1;fill-rule:evenodd;stroke:#595959;stroke-width:1.00000003pt;stroke-opacity:1" id="path14849" d="M 5.77,0 -2.88,5 V -5 Z" transform="scale(0.4)"/></marker><marker style="overflow:visible" id="marker14817" orient="auto" refX="0" refY="0"><path style="fill:#595959;fill-opacity:1;fill-rule:evenodd;stroke:#595959;stroke-width:1.00000003pt;stroke-opacity:1" id="path14815" d="M 5.77,0 -2.88,5 V -5 Z" transform="scale(-0.4)"/></marker><marker style="overflow:visible" id="marker13728" orient="auto" refX="0" refY="0"><path style="fill:#595959;fill-opacity:1;fill-rule:evenodd;stroke:#595959;stroke-width:1.00000003pt;stroke-opacity:1" id="path13726" d="M 5.77,0 -2.88,5 V -5 Z" transform="scale(0.4)"/></marker><symbol id="icon-Icon_RH_Hardware_Server-A-Single_RGB_Flat" viewBox="0 0 58 32"><title id="title11318">Icon_RH_Hardware_Server-A-Single_RGB_Flat</title><path id="path11320" d="m 15.763,7.303 c -0.003,0 -0.006,0 -0.009,0 -0.101,0 -0.197,0.021 -0.284,0.059 l -7.723,3.284 c -0.258,0.115 -0.435,0.369 -0.435,0.664 0,0.07 0.01,0.137 0.028,0.2 -0.018,0.058 -0.038,0.118 -0.038,0.183 v 12.274 c 0,0.403 0.327,0.73 0.73,0.73 h 42.01 c 0.403,0 0.73,-0.327 0.73,-0.73 V 11.693 c 0.003,-0.066 -0.02,-0.128 -0.037,-0.188 0.018,-0.059 0.028,-0.127 0.028,-0.198 0,-0.28 -0.16,-0.523 -0.395,-0.642 L 43.648,7.377 C 43.555,7.33 43.445,7.303 43.329,7.303 H 15.762 Z m 0.145,1.458 h 27.255 l 4.498,2.205 H 10.735 Z M 8.763,12.606 H 49.315 V 23.237 H 8.763 Z m 31.596,1.934 c -0.203,0 -0.365,0.163 -0.365,0.365 v 5.842 c 0,0.202 0.162,0.365 0.365,0.365 h 2.191 c 0.202,0 0.365,-0.163 0.365,-0.365 v -5.842 c 0,-0.202 -0.163,-0.365 -0.365,-0.365 z m 4.381,0 c -0.202,0 -0.365,0.163 -0.365,0.365 v 5.842 c 0,0.202 0.163,0.365 0.365,0.365 h 2.191 c 0.199,0 0.365,-0.163 0.365,-0.365 v -5.842 c 0,-0.202 -0.166,-0.365 -0.365,-0.365 z m -4.016,0.73 h 1.461 v 5.112 h -1.461 z m 4.381,0 h 1.461 v 5.112 h -1.461 z m -32.648,1.609 c -0.555,0 -1.004,0.45 -1.004,1.004 0,0.554 0.45,1.004 1.004,1.004 0.555,0 1.004,-0.45 1.004,-1.004 0,-0.554 -0.45,-1.004 -1.004,-1.004 z m 3.563,0 c -0.555,0 -1.004,0.45 -1.004,1.004 0,0.554 0.45,1.004 1.004,1.004 0.555,0 1.004,-0.45 1.004,-1.004 0,-0.554 -0.45,-1.004 -1.004,-1.004 z" class="path1"/></symbol><symbol id="icon-Icon_RH_People_Adult-Plain_RGB_Flat" viewBox="0 0 23 32"><title id="title10643">Icon_RH_People_Adult-Plain_RGB_Flat</title><path id="path10645" d="m 11.377,2.913 c -2.256,0 -4.09,1.835 -4.09,4.091 0,2.254 1.834,4.089 4.09,4.089 2.254,0 4.091,-1.835 4.091,-4.089 0,-2.256 -1.836,-4.09 -4.091,-4.09 z m 0,0.589 c 1.931,0 3.501,1.572 3.501,3.502 0,1.929 -1.569,3.499 -3.501,3.499 -1.93,0 -3.501,-1.57 -3.501,-3.499 0,-1.933 1.571,-3.502 3.501,-3.502 z m -1.958,8.382 c -5.69,0 -6.033,4.176 -6.216,6.421 l -0.289,3.621 v 0.024 c 0,2.054 1.193,3.099 2.521,4.074 l 0.337,0.248 -0.088,1.435 0.218,0.189 c 0.524,0.444 1.932,1.19 5.475,1.19 3.441,0 4.87,-0.713 5.416,-1.139 l 0.243,-0.19 -0.084,-1.461 0.341,-0.251 c 1.394,-1.023 2.548,-2.037 2.548,-4.095 l -0.288,-3.657 c -0.221,-2.24 -0.631,-6.41 -6.214,-6.41 h -3.92 z m 0,0.589 h 3.919 c 4.856,0 5.379,3.337 5.629,5.878 l 0.283,3.599 h 0.003 c 0,1.743 -0.939,2.615 -2.308,3.62 l -0.561,-7.796 c 0,-0.143 -0.117,-0.259 -0.26,-0.259 0,0 0,0 0,0 -0.142,0 -0.256,0.115 -0.256,0.257 0,0.001 0,0.001 0,0.002 l 0.563,9.709 c -0.426,0.332 -1.7,1.014 -5.053,1.014 -3.476,0 -4.72,-0.733 -5.094,-1.051 0.008,-0.021 0.013,-0.046 0.013,-0.071 l 0.565,-9.601 c 0,-0.143 -0.116,-0.258 -0.258,-0.258 -0.142,0 -0.258,0.116 -0.258,0.258 L 5.785,25.549 C 4.426,24.552 3.505,23.681 3.505,21.95 L 3.792,18.351 C 4.013,15.65 4.563,12.473 9.421,12.473 Z" class="path1"/></symbol><marker style="overflow:visible" id="marker13728-3" orient="auto" refX="0" refY="0"><path style="fill:#595959;fill-opacity:1;fill-rule:evenodd;stroke:#595959;stroke-width:1.00000003pt;stroke-opacity:1" id="path13726-7" d="M 5.77,0 -2.88,5 V -5 Z" transform="scale(0.4)"/></marker><marker style="overflow:visible" id="marker13728-3-2" orient="auto" refX="0" refY="0"><path style="fill:#595959;fill-opacity:1;fill-rule:evenodd;stroke:#595959;stroke-width:1.00000003pt;stroke-opacity:1" id="path13726-7-8" d="M 5.77,0 -2.88,5 V -5 Z" transform="scale(0.4)"/></marker><marker id="TriangleOutM-8" orient="auto" refX="0" refY="0" style="overflow:visible"><path id="path10019-1" d="M 5.77,0 -2.88,5 V -5 Z" transform="scale(0.4)" style="fill:#595959;fill-opacity:1;fill-rule:evenodd;stroke:#595959;stroke-width:1.00000003pt;stroke-opacity:1"/></marker><marker style="overflow:visible" id="marker15435-7" orient="auto" refX="0" refY="0"><path style="fill:#595959;fill-opacity:1;fill-rule:evenodd;stroke:#595959;stroke-width:1.00000003pt;stroke-opacity:1" id="path15437-1" d="M 5.77,0 -2.88,5 V -5 Z" transform="scale(-0.4)"/></marker><marker id="TriangleOutM-9" orient="auto" refX="0" refY="0" style="overflow:visible"><path id="path10019-4" d="M 5.77,0 -2.88,5 V -5 Z" transform="scale(0.4)" style="fill:#595959;fill-opacity:1;fill-rule:evenodd;stroke:#595959;stroke-width:1.00000003pt;stroke-opacity:1"/></marker><marker style="overflow:visible" id="marker13728-3-0" orient="auto" refX="0" refY="0"><path style="fill:#595959;fill-opacity:1;fill-rule:evenodd;stroke:#595959;stroke-width:1.00000003pt;stroke-opacity:1" id="path13726-7-1" d="M 5.77,0 -2.88,5 V -5 Z" transform="scale(0.4)"/></marker><marker style="overflow:visible" id="marker15435-71" orient="auto" refX="0" refY="0"><path style="fill:#595959;fill-opacity:1;fill-rule:evenodd;stroke:#595959;stroke-width:1.00000003pt;stroke-opacity:1" id="path15437-5" d="M 5.77,0 -2.88,5 V -5 Z" transform="scale(-0.4)"/></marker><marker id="TriangleOutM-2" orient="auto" refX="0" refY="0" style="overflow:visible"><path id="path10019-7" d="M 5.77,0 -2.88,5 V -5 Z" transform="scale(0.4)" style="fill:#595959;fill-opacity:1;fill-rule:evenodd;stroke:#595959;stroke-width:1.00000003pt;stroke-opacity:1"/></marker><marker style="overflow:visible" id="marker13728-3-29" orient="auto" refX="0" refY="0"><path style="fill:#595959;fill-opacity:1;fill-rule:evenodd;stroke:#595959;stroke-width:1.00000003pt;stroke-opacity:1" id="path13726-7-5" d="M 5.77,0 -2.88,5 V -5 Z" transform="scale(0.4)"/></marker><marker style="overflow:visible" id="marker13728-3-4" orient="auto" refX="0" refY="0"><path style="fill:#595959;fill-opacity:1;fill-rule:evenodd;stroke:#595959;stroke-width:1.00000003pt;stroke-opacity:1" id="path13726-7-4" d="M 5.77,0 -2.88,5 V -5 Z" transform="scale(0.4)"/></marker><marker id="TriangleOutM-1" orient="auto" refX="0" refY="0" style="overflow:visible"><path id="path10019-48" d="M 5.77,0 -2.88,5 V -5 Z" transform="scale(0.4)" style="fill:#595959;fill-opacity:1;fill-rule:evenodd;stroke:#595959;stroke-width:1.00000003pt;stroke-opacity:1"/></marker><marker style="overflow:visible" id="marker15435-5" orient="auto" refX="0" refY="0"><path style="fill:#595959;fill-opacity:1;fill-rule:evenodd;stroke:#595959;stroke-width:1.00000003pt;stroke-opacity:1" id="path15437-2" d="M 5.77,0 -2.88,5 V -5 Z" transform="scale(-0.4)"/></marker><symbol id="icon-Icon_RH_Arrows_LowerCost-$_RGB_Flat" viewBox="0 0 18 32"><title id="title9747">Icon_RH_Arrows_LowerCost-$_RGB_Flat</title><path id="path9749" d="M 7.725,1.969 C 7.597,1.969 7.487,2.047 7.441,2.16 7.422,2.198 7.41,2.243 7.41,2.291 V 4.275 C 4.501,4.77 2.633,6.762 2.633,9.416 c 0,3.19 1.86,4.276 4.777,5.218 v 5.048 C 6.295,19.376 5.229,18.731 4.437,17.874 4.426,17.863 4.413,17.856 4.401,17.847 4.395,17.84 4.393,17.831 4.386,17.824 4.33,17.767 4.253,17.732 4.167,17.732 c -0.084,0 -0.161,0.034 -0.216,0.089 l -1.89,1.862 c -0.056,0.056 -0.091,0.133 -0.091,0.218 0,0.085 0.034,0.161 0.089,0.217 10e-4,0.002 0.002,0.001 0.005,0.002 0.003,0.005 0.005,0.012 0.008,0.018 1.36,1.59 3.247,2.609 5.339,2.894 v 2.404 L 5.786,24.72 C 5.541,24.597 5.277,24.676 5.118,24.916 5.055,25.01 4.936,25.268 5.197,25.618 l 3.559,4.302 c 0.057,0.068 0.142,0.11 0.237,0.11 0.095,0 0.18,-0.043 0.236,-0.11 l 3.568,-4.314 c 0.177,-0.234 0.205,-0.492 0.072,-0.69 -0.16,-0.241 -0.423,-0.318 -0.655,-0.202 l -1.638,0.721 v -2.474 c 3.19,-0.536 4.946,-2.492 4.946,-5.54 0,-3.205 -2.162,-4.422 -4.947,-5.349 V 7.699 c 0.715,0.258 1.345,0.674 1.955,1.297 0.06,0.061 0.14,0.093 0.219,0.093 0.044,0 0.086,-0.011 0.125,-0.029 0.042,-0.015 0.082,-0.038 0.115,-0.072 L 14.831,7.115 C 14.839,7.108 14.84,7.1 14.848,7.092 14.849,7.09 14.851,7.09 14.852,7.089 14.905,7.034 14.938,6.958 14.938,6.875 14.938,6.788 14.902,6.71 14.845,6.654 13.552,5.403 12.152,4.643 10.575,4.329 V 2.291 c 0,-0.093 -0.044,-0.174 -0.111,-0.231 -0.055,-0.057 -0.131,-0.092 -0.216,-0.092 0,0 -10e-4,0 -10e-4,0 H 7.725 Z m 0.3,0.616 H 9.96 v 9.289 C 9.844,11.838 9.728,11.802 9.609,11.766 8.98,11.578 8.46,11.407 8.025,11.243 Z M 7.41,4.899 V 6.901 C 6.099,7.212 5.326,8.091 5.326,9.29 c 0,1.135 0.661,1.785 2.084,2.375 0.134,0.061 0.337,0.142 0.544,0.216 0.488,0.172 0.957,0.32 1.478,0.475 0.182,0.056 0.356,0.11 0.529,0.167 0.211,0.067 0.416,0.135 0.615,0.205 2.872,0.997 4.332,2.139 4.332,4.696 0,2.718 -1.497,4.41 -4.332,4.917 v -2.022 c 1.495,-0.362 2.253,-1.275 2.253,-2.717 0,-1.216 -0.758,-1.934 -2.253,-2.559 C 10.468,14.992 10.264,14.911 10.059,14.834 9.549,14.653 9.095,14.508 8.595,14.357 8.398,14.298 8.211,14.241 8.026,14.183 7.811,14.117 7.608,14.049 7.411,13.985 4.369,12.963 3.249,11.955 3.249,9.417 3.249,7.114 4.872,5.373 7.411,4.899 Z m 3.165,0.057 c 1.318,0.288 2.508,0.925 3.616,1.935 l -1.44,1.464 C 12.087,7.731 11.371,7.304 10.575,7.054 V 4.955 Z M 7.41,7.537 v 3.456 C 6.191,10.448 5.942,9.97 5.942,9.289 5.942,8.416 6.461,7.804 7.41,7.537 Z m 0.615,7.291 c 0.13,0.041 0.258,0.08 0.392,0.119 0.599,0.179 1.106,0.346 1.543,0.512 v 10.45 c 0,0.104 0.052,0.201 0.139,0.258 0.048,0.031 0.106,0.05 0.169,0.05 0.045,0 0.087,-0.009 0.126,-0.026 l 1.769,-0.781 -3.171,3.832 -3.17,-3.832 1.772,0.782 c 0.096,0.041 0.204,0.032 0.29,-0.024 0.089,-0.057 0.142,-0.154 0.142,-0.258 V 14.829 Z m 2.55,0.882 c 1.215,0.545 1.638,1.089 1.638,1.891 0,1.101 -0.527,1.765 -1.638,2.078 z m -6.409,2.762 c 0.885,0.889 2.043,1.546 3.244,1.845 v 2.096 C 5.581,22.145 3.931,21.265 2.703,19.914 Z" class="path1"/></symbol><symbol id="icon-Icon_RH_Diagram_Scale-Growing_RGB_Flat" viewBox="0 0 32 32"><title id="title9562">Icon_RH_Diagram_Scale-Growing_RGB_Flat</title><path id="path9564" d="m 10.907,3.075 c -1.009,0 -1.874,0.817 -1.874,1.874 V 15.231 H 4.949 c -1.009,0 -1.874,0.817 -1.874,1.874 v 9.946 c 0,1.009 0.817,1.874 1.874,1.874 h 9.946 c 1.009,0 1.874,-0.817 1.874,-1.874 v -3.94 h 10.427 c 1.009,0 1.874,-0.817 1.874,-1.874 V 4.901 C 29.118,3.891 28.253,3.075 27.244,3.075 H 10.908 Z m 0,0.961 h 16.336 c 0.48,0 0.913,0.384 0.913,0.913 v 16.336 c 0,0.48 -0.384,0.913 -0.913,0.913 H 16.768 v -5.094 c 0,-1.009 -0.817,-1.874 -1.874,-1.874 H 9.993 V 4.948 c 0,-0.481 0.384,-0.913 0.913,-0.913 z m 13.79,3.267 -2.787,0.721 0.721,0.72 -4.661,4.661 c -0.192,0.192 -0.192,0.48 0,0.673 0.096,0.096 0.24,0.144 0.336,0.144 0.144,0 0.24,-0.048 0.336,-0.144 l 4.661,-4.661 0.673,0.673 z M 4.949,16.192 h 4.324 v 5.094 c 0,0.004 0,0.009 0,0.013 0,0.895 0.725,1.62 1.62,1.62 0.005,0 0.01,0 0.014,0 h 4.9 v 4.132 c 0,0.48 -0.384,0.913 -0.913,0.913 H 4.948 c -0.481,0 -0.913,-0.384 -0.913,-0.913 v -9.946 c 0,-0.48 0.384,-0.913 0.913,-0.913 z m 4.805,0 h 5.189 c 0.48,0 0.913,0.384 0.913,0.913 v 5.285 h -4.949 c -0.625,0 -1.153,-0.529 -1.153,-1.153 z" class="path1"/></symbol><symbol id="icon-Icon_RH_Software_Provisioning_RGB_Flat" viewBox="0 0 37 32"><title id="title8327">Icon_RH_Software_Provisioning_RGB_Flat</title><path id="path8329" d="m 16.023,5.008 c -0.827,0 -1.502,0.674 -1.502,1.501 v 4.593 c 0.002,0.828 0.674,1.499 1.502,1.5 h 4.59 c 0.828,-10e-4 1.499,-0.672 1.5,-1.5 V 6.509 C 22.112,5.681 21.441,5.01 20.613,5.008 h -4.591 z m 0,0.626 h 4.59 c 0.483,0 0.874,0.394 0.874,0.875 v 4.593 c 0,0.483 -0.391,0.874 -0.874,0.874 h -4.59 c -0.483,0 -0.876,-0.391 -0.876,-0.874 V 6.511 c 0,-0.483 0.393,-0.876 0.876,-0.876 z m 2.051,1.623 -1.053,3.095 h 0.415 l 0.32,-0.971 h 1.098 l 0.331,0.971 h 0.426 L 18.557,7.257 Z M 18.3,7.612 h 0.009 c 0.045,0.178 0.09,0.362 0.16,0.563 l 0.303,0.892 h -0.933 l 0.303,-0.896 c 0.061,-0.188 0.11,-0.376 0.157,-0.559 z M 10.929,14 c -0.303,0 -0.757,0.1 -1.032,0.227 l -4.062,1.887 c -0.061,0.031 -0.11,0.079 -0.14,0.137 -0.157,0.145 -0.254,0.349 -0.254,0.577 0,0 0,0 0,0 v 1.605 c 0.001,0.433 0.351,0.784 0.785,0.785 h 1.352 l -2.273,0.971 c -0.164,0.07 -0.281,0.251 -0.238,0.417 -0.008,0.032 -0.059,0.062 -0.059,0.095 v 5.906 c 0,0.194 0.239,0.384 0.434,0.384 h 25.697 c 0.196,0 0.436,-0.19 0.436,-0.384 v -5.905 c -0.002,-0.034 -0.052,-0.062 -0.06,-0.092 0.041,-0.158 -0.048,-0.331 -0.2,-0.406 l -2.004,-0.987 h 1.083 c 0.434,0 0.786,-0.351 0.786,-0.785 v -1.605 c 0,-0.233 -0.103,-0.441 -0.265,-0.585 -0.028,-0.05 -0.068,-0.091 -0.116,-0.118 l -3.477,-1.865 c -0.272,-0.147 -0.726,-0.26 -1.036,-0.26 H 10.929 Z m 0,0.626 h 15.357 c 0.209,0 0.556,0.088 0.74,0.185 l 2.296,1.231 H 7.476 l 2.684,-1.247 c 0.195,-0.09 0.553,-0.169 0.769,-0.169 z m -4.702,2.042 h 24.169 c 0.086,0 0.158,0.074 0.158,0.16 v 1.605 c -0.002,0.088 -0.073,0.158 -0.16,0.159 H 28.036 C 27.999,18.573 27.955,18.56 27.908,18.557 H 9.16 c -0.04,0 -0.081,0.019 -0.119,0.035 H 6.226 C 6.139,18.591 6.068,18.52 6.067,18.433 v -1.606 c 0,-0.086 0.073,-0.16 0.159,-0.16 z m 3.006,2.594 h 18.594 l 2.165,1.052 H 6.74 L 9.232,19.262 Z M 5.71,21.018 h 25.161 v 5.271 H 5.71 Z m 20.768,1.054 c -0.097,0 -0.176,0.079 -0.176,0.176 v 2.811 c 0,0.096 0.08,0.176 0.176,0.176 h 1.055 c 0,0 0,0 0,0 0.097,0 0.175,-0.078 0.175,-0.175 0,0 0,0 0,-10e-4 v -2.811 c 0,0 0,-0.001 0,-0.002 0,-0.097 -0.078,-0.175 -0.175,-0.175 0,0 0,0 -0.001,0 h -1.055 z m 2.108,0 c -0.097,0.001 -0.175,0.079 -0.175,0.176 v 2.811 c 0,0.096 0.08,0.176 0.175,0.176 h 1.055 c 0.098,0 0.177,-0.08 0.177,-0.176 v -2.811 c 0,0 0,0 0,0 0,-0.097 -0.079,-0.176 -0.176,-0.176 0,0 -0.001,0 -0.001,0 h -1.054 z m -1.932,0.351 h 0.704 v 2.461 h -0.704 z m 2.108,0 h 0.705 v 2.461 H 28.763 V 22.423 Z M 7.57,23.198 c 0,0 0,0 0,0 -0.266,0 -0.482,0.216 -0.482,0.482 0,0 0,0 0,0.001 0,0.267 0.216,0.483 0.483,0.483 0.267,0 0.483,-0.216 0.483,-0.483 0,-0.267 -0.216,-0.483 -0.483,-0.483 z m 1.714,0 c -0.004,0 -0.01,0 -0.015,0 -0.267,0 -0.484,0.217 -0.484,0.484 0,0.267 0.217,0.484 0.484,0.484 0.006,0 0.011,0 0.017,0 0.259,-0.009 0.467,-0.222 0.467,-0.483 0,-0.261 -0.208,-0.475 -0.468,-0.483 z" class="path1"/></symbol><symbol id="icon-Icon_RH_software_command_RGB_Flat" viewBox="0 0 44 32"><title id="title62518">Icon_RH_software_command_RGB_Flat</title><path id="path62520" d="m 6.374,6.125 c 0,0 -10e-4,0 -10e-4,0 -0.269,0 -0.487,0.218 -0.487,0.486 v 27.197 c 0,0.268 0.218,0.486 0.488,0.486 h 31.624 c 0.268,0 0.486,-0.217 0.486,-0.486 V 6.611 c 0,-0.268 -0.218,-0.486 -0.486,-0.486 z m 0.498,0.974 h 30.627 v 4.943 H 6.872 Z M 35.373,7.968 C 35.301,7.969 35.236,7.999 35.19,8.046 L 34.101,9.167 32.981,8.078 C 32.938,8.03 32.875,8 32.806,8 32.783,8 32.761,8.003 32.741,8.009 32.655,8.03 32.587,8.098 32.565,8.183 c -0.004,0.018 -0.006,0.036 -0.006,0.055 0,0.073 0.032,0.14 0.082,0.185 l 1.101,1.118 -1.066,1.12 c -0.038,0.043 -0.061,0.099 -0.061,0.161 0,0.068 0.028,0.13 0.074,0.174 0.091,0.091 0.239,0.093 0.335,0.005 l 1.088,-1.13 1.118,1.088 c 0.038,0.025 0.084,0.04 0.133,0.04 0.068,0 0.13,-0.028 0.175,-0.073 0.043,-0.044 0.07,-0.104 0.07,-0.17 0,-0.052 -0.016,-0.099 -0.044,-0.139 L 34.447,9.529 35.565,8.411 c 0.046,-0.047 0.074,-0.112 0.074,-0.183 0,-0.074 -0.03,-0.14 -0.079,-0.188 -0.048,-0.046 -0.112,-0.074 -0.184,-0.074 -0.002,0 -0.003,0 -0.005,0 z M 6.872,12.779 h 30.627 v 20.544 l 0.014,0.004 H 6.873 V 12.778 Z m 9.206,6.534 c -0.005,0 -0.011,0 -0.017,0 -0.092,0 -0.178,0.024 -0.253,0.067 -0.158,0.088 -0.264,0.257 -0.264,0.451 0,0.199 0.113,0.372 0.278,0.458 l 3.894,2.251 -3.891,2.252 c -0.15,0.091 -0.248,0.254 -0.248,0.439 0,0.088 0.022,0.17 0.061,0.242 0.09,0.16 0.262,0.262 0.449,0.262 0.008,0 0.018,0.001 0.028,0.001 0.083,0 0.161,-0.019 0.23,-0.053 l 5.468,-3.143 -5.471,-3.144 c -0.075,-0.049 -0.166,-0.079 -0.264,-0.082 z m 6.186,5.387 c -0.286,0 -0.517,0.231 -0.517,0.517 0,0.286 0.231,0.517 0.517,0.517 h 6.291 c 0.286,0 0.517,-0.231 0.517,-0.517 0,-0.286 -0.231,-0.517 -0.517,-0.517 z" class="path1"/></symbol></defs><metadata id="metadata7"/><g id="layer1" transform="translate(-6.7115364,-404.69785)"><flowRoot id="flowRoot8657" xml:space="preserve" style="font-style:normal;font-variant:normal;font-weight:400;font-stretch:normal;line-height:.01%;font-family:Overpass;-inkscape-font-specification:'Overpass, Normal';text-align:center;letter-spacing:0;word-spacing:0;writing-mode:lr-tb;text-anchor:middle;fill:#000;fill-opacity:1;stroke:none;stroke-width:1px;stroke-linecap:butt;stroke-linejoin:miter;stroke-opacity:1"><flowRegion id="flowRegion8659"><rect id="rect8661" width="160" height="100" x="-40" y="720"/></flowRegion><flowPara id="flowPara8663" style="font-size:13.33333302px;line-height:1"/></flowRoot><flowRoot id="flowRoot8665" xml:space="preserve" style="font-style:normal;font-variant:normal;font-weight:400;font-stretch:normal;line-height:.01%;font-family:Overpass;-inkscape-font-specification:'Overpass, Normal';text-align:center;letter-spacing:0;word-spacing:0;writing-mode:lr-tb;text-anchor:middle;fill:#000;fill-opacity:1;stroke:none;stroke-width:1px;stroke-linecap:butt;stroke-linejoin:miter;stroke-opacity:1"><flowRegion id="flowRegion8667"><rect id="rect8669" width="80" height="20" x="40" y="720"/></flowRegion><flowPara id="flowPara8671" style="font-size:13.33333302px;line-height:1"/></flowRoot><g id="g11392" transform="translate(-16.55299)"><rect style="fill:#3f9c35;stroke-width:1.7511903" id="rect4880" width="226.077" height="153.696" x="320.712" y="432.006"/><text style="font-style:normal;font-variant:normal;font-weight:400;font-stretch:normal;line-height:0%;font-family:Overpass;-inkscape-font-specification:Overpass;text-align:start;text-anchor:start;fill:#fff" id="text4884" x="340.712" y="472.006" xml:space="preserve"><tspan style="font-style:normal;font-variant:normal;font-weight:700;font-stretch:normal;font-size:16px;line-height:100%;font-family:Overpass;-inkscape-font-specification:'Overpass, Bold';font-variant-ligatures:none;font-variant-caps:normal;font-variant-numeric:normal;text-align:start;writing-mode:lr-tb;text-anchor:start" id="tspan4882" x="340.712" y="472.006">Client</tspan></text><rect id="rect4886" width="187" height="32" x="340.712" y="492.006" style="fill:#e5e5e5;fill-opacity:1;stroke:#3f9c35;stroke-width:.7559287"/><text style="font-style:normal;font-variant:normal;font-weight:700;font-stretch:normal;line-height:0%;font-family:Overpass;-inkscape-font-specification:'Overpass Bold';text-align:start;text-anchor:start;fill:#595959" id="text4890" x="358.619" y="513.686" xml:space="preserve"><tspan style="font-style:normal;font-variant:normal;font-weight:400;font-stretch:normal;font-size:16px;line-height:100%;font-family:Overpass;-inkscape-font-specification:'Overpass, Normal';font-variant-ligatures:none;font-variant-caps:normal;font-variant-numeric:normal;text-align:start;writing-mode:lr-tb;text-anchor:start" id="tspan4888" x="358.619" y="513.686">Attributes</tspan></text><rect style="fill:#e5e5e5;fill-opacity:1;stroke:#3f9c35;stroke-width:.7559287" id="rect4892" width="187" height="32" x="340.712" y="532.006"/><text id="text4896" x="358.619" y="553.686" xml:space="preserve" style="font-style:normal;font-variant:normal;font-weight:700;font-stretch:normal;line-height:0%;font-family:Overpass;-inkscape-font-specification:'Overpass Bold';text-align:start;text-anchor:start;fill:#595959"><tspan id="tspan4894" x="358.619" y="553.686" style="font-style:normal;font-variant:normal;font-weight:400;font-stretch:normal;font-size:16px;line-height:100%;font-family:Overpass;-inkscape-font-specification:'Overpass, Normal';font-variant-ligatures:none;font-variant-caps:normal;font-variant-numeric:normal;text-align:start;writing-mode:lr-tb;text-anchor:start">Credentials</tspan></text></g><g id="g11411" transform="translate(8.0044441)"><rect style="fill:#c00;stroke-width:1.7511903" id="rect4922" width="226.077" height="67.647" x="837.048" y="432.006"/><text style="font-style:normal;font-variant:normal;font-weight:400;font-stretch:normal;line-height:0%;font-family:Overpass;-inkscape-font-specification:Overpass;text-align:start;text-anchor:start;fill:#fff" id="text4926" x="857.048" y="472.006" xml:space="preserve"><tspan style="font-style:normal;font-variant:normal;font-weight:700;font-stretch:normal;font-size:16px;line-height:100%;font-family:Overpass;-inkscape-font-specification:'Overpass, Bold';font-variant-ligatures:none;font-variant-caps:normal;font-variant-numeric:normal;text-align:start;writing-mode:lr-tb;text-anchor:start" id="tspan4924" x="857.048" y="472.006">Event</tspan></text></g><g id="g11406" transform="translate(-0.10596848)"><rect id="rect4898" width="226.077" height="193.5" x="574.712" y="432.006" style="fill:#ec7a08;stroke-width:1.7511903"/><text id="text4902" x="594.712" y="472.006" xml:space="preserve" style="font-style:normal;font-variant:normal;font-weight:400;font-stretch:normal;line-height:0%;font-family:Overpass;-inkscape-font-specification:Overpass;text-align:start;text-anchor:start;fill:#fff"><tspan id="tspan4900" x="594.712" y="472.006" style="font-style:normal;font-variant:normal;font-weight:700;font-stretch:normal;font-size:16px;line-height:100%;font-family:Overpass;-inkscape-font-specification:'Overpass, Bold';font-variant-ligatures:none;font-variant-caps:normal;font-variant-numeric:normal;text-align:start;writing-mode:lr-tb;text-anchor:start">User</tspan></text><rect style="fill:#e5e5e5;fill-opacity:1;stroke:#ec7a08;stroke-width:.7559287" id="rect4904" width="187" height="32" x="594.712" y="492.006"/><text id="text4908" x="612.619" y="513.686" xml:space="preserve" style="font-style:normal;font-variant:normal;font-weight:700;font-stretch:normal;line-height:0%;font-family:Overpass;-inkscape-font-specification:'Overpass Bold';text-align:start;text-anchor:start;fill:#595959"><tspan id="tspan4906" x="612.619" y="513.686" style="font-style:normal;font-variant:normal;font-weight:400;font-stretch:normal;font-size:16px;line-height:100%;font-family:Overpass;-inkscape-font-specification:'Overpass, Normal';font-variant-ligatures:none;font-variant-caps:normal;font-variant-numeric:normal;text-align:start;writing-mode:lr-tb;text-anchor:start">Attributes</tspan></text><rect id="rect4910" width="187" height="32" x="594.712" y="532.006" style="fill:#e5e5e5;fill-opacity:1;stroke:#ec7a08;stroke-width:.7559287"/><text style="font-style:normal;font-variant:normal;font-weight:700;font-stretch:normal;line-height:0%;font-family:Overpass;-inkscape-font-specification:'Overpass Bold';text-align:start;text-anchor:start;fill:#595959" id="text4914" x="612.619" y="553.686" xml:space="preserve"><tspan style="font-style:normal;font-variant:normal;font-weight:400;font-stretch:normal;font-size:16px;line-height:100%;font-family:Overpass;-inkscape-font-specification:'Overpass, Normal';font-variant-ligatures:none;font-variant-caps:normal;font-variant-numeric:normal;text-align:start;writing-mode:lr-tb;text-anchor:start" id="tspan4912" x="612.619" y="553.686">Credentials</tspan></text><rect style="fill:#e5e5e5;fill-opacity:1;stroke:#ec7a08;stroke-width:.7559287" id="rect4952" width="187" height="32" x="594.712" y="572.762"/><text id="text4956" x="612.619" y="594.442" xml:space="preserve" style="font-style:normal;font-variant:normal;font-weight:700;font-stretch:normal;line-height:0%;font-family:Overpass;-inkscape-font-specification:'Overpass Bold';text-align:start;text-anchor:start;fill:#595959"><tspan id="tspan4954" x="612.619" y="594.442" style="font-style:normal;font-variant:normal;font-weight:400;font-stretch:normal;font-size:16px;line-height:100%;font-family:Overpass;-inkscape-font-specification:'Overpass, Normal';font-variant-ligatures:none;font-variant-caps:normal;font-variant-numeric:normal;text-align:start;writing-mode:lr-tb;text-anchor:start">Consents</tspan></text></g><g id="g11416" transform="translate(1.1021875e-4)"><rect id="rect500" width="226.077" height="68.5" x="1115.499" y="432.006" style="fill:#004153;stroke-width:1.7511903"/><text id="text504" x="1135.499" y="472.006" xml:space="preserve" style="font-style:normal;font-variant:normal;font-weight:400;font-stretch:normal;line-height:0%;font-family:Overpass;-inkscape-font-specification:Overpass;text-align:start;text-anchor:start;fill:#fff"><tspan id="tspan502" x="1135.499" y="472.006" style="font-style:normal;font-variant:normal;font-weight:700;font-stretch:normal;font-size:16px;line-height:100%;font-family:Overpass;-inkscape-font-specification:'Overpass, Bold';font-variant-ligatures:none;font-variant-caps:normal;font-variant-numeric:normal;text-align:start;writing-mode:lr-tb;text-anchor:start">Authentication session</tspan></text></g><rect id="rect542" width="226.077" height="67.647" x="574.606" y="794.817" style="fill:#ec7a08;stroke-width:1.7511903"/><text id="text546" x="595.006" y="832.729" xml:space="preserve" style="font-style:normal;font-variant:normal;font-weight:400;font-stretch:normal;line-height:0%;font-family:Overpass;-inkscape-font-specification:Overpass;text-align:start;text-anchor:start;fill:#fff"><tspan id="tspan544" x="595.006" y="832.729" style="font-style:normal;font-variant:normal;font-weight:700;font-stretch:normal;font-size:16px;line-height:100%;font-family:Overpass;-inkscape-font-specification:'Overpass, Bold';font-variant-ligatures:none;font-variant-caps:normal;font-variant-numeric:normal;text-align:start;writing-mode:lr-tb;text-anchor:start">Group</tspan></text><g id="g11900" transform="translate(-25.035839,-181.96615)"><rect id="rect548" width="226.077" height="67.647" x="599.641" y="857.787" style="fill:#ec7a08;stroke-width:1.7511903"/><text id="text552" x="619.641" y="897.787" xml:space="preserve" style="font-style:normal;font-variant:normal;font-weight:400;font-stretch:normal;line-height:0%;font-family:Overpass;-inkscape-font-specification:Overpass;text-align:start;text-anchor:start;fill:#fff"><tspan id="tspan550" x="619.641" y="897.787" style="font-style:normal;font-variant:normal;font-weight:700;font-stretch:normal;font-size:16px;line-height:100%;font-family:Overpass;-inkscape-font-specification:'Overpass, Bold';font-variant-ligatures:none;font-variant-caps:normal;font-variant-numeric:normal;text-align:start;writing-mode:lr-tb;text-anchor:start">Role</tspan></text></g><g id="g12193" transform="translate(-16.553066,-24.343199)"><rect id="rect203" width="226.077" height="151.074" x="320.712" y="666.547" style="fill:#3f9c35;stroke-width:1.7511903"/><text id="text207" x="340.712" y="706.547" xml:space="preserve" style="font-style:normal;font-variant:normal;font-weight:400;font-stretch:normal;line-height:0%;font-family:Overpass;-inkscape-font-specification:Overpass;text-align:start;text-anchor:start;fill:#fff"><tspan id="tspan205" x="340.712" y="706.547" style="font-style:normal;font-variant:normal;font-weight:700;font-stretch:normal;font-size:16px;line-height:100%;font-family:Overpass;-inkscape-font-specification:'Overpass, Bold';font-variant-ligatures:none;font-variant-caps:normal;font-variant-numeric:normal;text-align:start;writing-mode:lr-tb;text-anchor:start">Client Scope</tspan></text><rect style="fill:#e5e5e5;fill-opacity:1;stroke:#3f9c35;stroke-width:.7559287" id="rect209" width="187" height="32" x="340.712" y="726.547"/><text id="text213" x="358.619" y="748.227" xml:space="preserve" style="font-style:normal;font-variant:normal;font-weight:700;font-stretch:normal;line-height:0%;font-family:Overpass;-inkscape-font-specification:'Overpass Bold';text-align:start;text-anchor:start;fill:#595959"><tspan id="tspan211" x="358.619" y="748.227" style="font-style:normal;font-variant:normal;font-weight:400;font-stretch:normal;font-size:16px;line-height:100%;font-family:Overpass;-inkscape-font-specification:'Overpass, Normal';font-variant-ligatures:none;font-variant-caps:normal;font-variant-numeric:normal;text-align:start;writing-mode:lr-tb;text-anchor:start">Attributes</tspan></text><rect id="rect215" width="187" height="32" x="340.712" y="766.547" style="fill:#e5e5e5;fill-opacity:1;stroke:#3f9c35;stroke-width:.7559287"/><text style="font-style:normal;font-variant:normal;font-weight:700;font-stretch:normal;line-height:0%;font-family:Overpass;-inkscape-font-specification:'Overpass Bold';text-align:start;text-anchor:start;fill:#595959" id="text219" x="358.619" y="788.227" xml:space="preserve"><tspan style="font-style:normal;font-variant:normal;font-weight:400;font-stretch:normal;font-size:16px;line-height:100%;font-family:Overpass;-inkscape-font-specification:'Overpass, Normal';font-variant-ligatures:none;font-variant-caps:normal;font-variant-numeric:normal;text-align:start;writing-mode:lr-tb;text-anchor:start" id="tspan217" x="358.619" y="788.227">Protocol Mappers</tspan></text></g><g id="g11379"><rect id="rect3905" width="226.077" height="233.11" x="33.712" y="432.006" style="fill:#0088ce;stroke-width:1.7511903"/><text id="text3909" x="53.712" y="472.006" xml:space="preserve" style="font-style:normal;font-variant:normal;font-weight:400;font-stretch:normal;line-height:0%;font-family:Overpass;-inkscape-font-specification:Overpass;text-align:start;text-anchor:start;fill:#fff"><tspan id="tspan3907" x="53.712" y="472.006" style="font-style:normal;font-variant:normal;font-weight:700;font-stretch:normal;font-size:16px;line-height:100%;font-family:Overpass;-inkscape-font-specification:'Overpass, Bold';font-variant-ligatures:none;font-variant-caps:normal;font-variant-numeric:normal;text-align:start;writing-mode:lr-tb;text-anchor:start">Realm</tspan></text><rect style="fill:#e5e5e5;fill-opacity:1;stroke:#0088ce;stroke-width:.7559287" id="rect3911" width="187" height="32" x="53.712" y="492.006"/><text id="text3915" x="71.619" y="513.686" xml:space="preserve" style="font-style:normal;font-variant:normal;font-weight:700;font-stretch:normal;line-height:0%;font-family:Overpass;-inkscape-font-specification:'Overpass Bold';text-align:start;text-anchor:start;fill:#595959"><tspan id="tspan3913" x="71.619" y="513.686" style="font-style:normal;font-variant:normal;font-weight:400;font-stretch:normal;font-size:16px;line-height:100%;font-family:Overpass;-inkscape-font-specification:'Overpass, Normal';font-variant-ligatures:none;font-variant-caps:normal;font-variant-numeric:normal;text-align:start;writing-mode:lr-tb;text-anchor:start">Attributes</tspan></text><rect id="rect4874" width="187" height="32" x="53.712" y="532.006" style="fill:#e5e5e5;fill-opacity:1;stroke:#0088ce;stroke-width:.7559287"/><text style="font-style:normal;font-variant:normal;font-weight:700;font-stretch:normal;line-height:0%;font-family:Overpass;-inkscape-font-specification:'Overpass Bold';text-align:start;text-anchor:start;fill:#595959" id="text4878" x="71.619" y="553.686" xml:space="preserve"><tspan style="font-style:normal;font-variant:normal;font-weight:400;font-stretch:normal;font-size:16px;line-height:100%;font-family:Overpass;-inkscape-font-specification:'Overpass, Normal';font-variant-ligatures:none;font-variant-caps:normal;font-variant-numeric:normal;text-align:start;writing-mode:lr-tb;text-anchor:start" id="tspan4876" x="71.619" y="553.686">User Federation</tspan></text><rect id="rect4916" width="187" height="32" x="53.712" y="572.006" style="fill:#e5e5e5;fill-opacity:1;stroke:#0088ce;stroke-width:.7559287"/><text style="font-style:normal;font-variant:normal;font-weight:700;font-stretch:normal;line-height:0%;font-family:Overpass;-inkscape-font-specification:'Overpass Bold';text-align:start;text-anchor:start;fill:#595959" id="text4920" x="71.619" y="593.686" xml:space="preserve"><tspan style="font-style:normal;font-variant:normal;font-weight:400;font-stretch:normal;font-size:16px;line-height:100%;font-family:Overpass;-inkscape-font-specification:'Overpass, Normal';font-variant-ligatures:none;font-variant-caps:normal;font-variant-numeric:normal;text-align:start;writing-mode:lr-tb;text-anchor:start" id="tspan4918" x="71.619" y="593.686">Identity Providers</tspan></text><rect style="fill:#e5e5e5;fill-opacity:1;stroke:#0088ce;stroke-width:.7559287" id="rect1328" width="187" height="32" x="53.712" y="612.762"/><text id="text1332" x="71.619" y="634.442" xml:space="preserve" style="font-style:normal;font-variant:normal;font-weight:700;font-stretch:normal;line-height:0%;font-family:Overpass;-inkscape-font-specification:'Overpass Bold';text-align:start;text-anchor:start;fill:#595959"><tspan id="tspan1330" x="71.619" y="634.442" style="font-style:normal;font-variant:normal;font-weight:400;font-stretch:normal;font-size:16px;line-height:100%;font-family:Overpass;-inkscape-font-specification:'Overpass, Normal';font-variant-ligatures:none;font-variant-caps:normal;font-variant-numeric:normal;text-align:start;writing-mode:lr-tb;text-anchor:start">Components</tspan></text></g><path style="fill:#595959;stroke:#595959;stroke-width:1px;stroke-linecap:butt;stroke-linejoin:miter;stroke-opacity:1;marker-end:url(#Arrow2Lend)" id="path1346" d="m 417.17944,585.7019 v 54.84525"/><path style="fill:none;stroke:#595959;stroke-width:1px;stroke-linecap:butt;stroke-linejoin:miter;stroke-opacity:1;marker-end:url(#marker7274)" id="path7270" d="m 800.14143,719.67242 h 17.00853 v 43.82876 H 786 v -20.11415"/><g id="g11421" transform="translate(1.1021875e-4,18)"><rect style="fill:#004153;stroke-width:1.7511903" id="rect7906" width="226.077" height="68.5" x="1115.499" y="530.006"/><text style="font-style:normal;font-variant:normal;font-weight:400;font-stretch:normal;line-height:0%;font-family:Overpass;-inkscape-font-specification:Overpass;text-align:start;text-anchor:start;fill:#fff" id="text7910" x="1135.499" y="570.006" xml:space="preserve"><tspan style="font-style:normal;font-variant:normal;font-weight:700;font-stretch:normal;font-size:16px;line-height:100%;font-family:Overpass;-inkscape-font-specification:'Overpass, Bold';font-variant-ligatures:none;font-variant-caps:normal;font-variant-numeric:normal;text-align:start;writing-mode:lr-tb;text-anchor:start" id="tspan7908" x="1135.499" y="570.006">User session</tspan></text></g><path id="path8530" d="M 800.18273,595.05874 H 855.5315 V 814.93566 H 800.68274" style="fill:none;stroke:#595959;stroke-width:1px;stroke-linecap:butt;stroke-linejoin:miter;stroke-opacity:1;marker-end:url(#marker8534)"/><g id="g12250" transform="translate(-16.553066,-118.2384)"><rect style="fill:#3f9c35;stroke-width:1.7511903" id="rect11334" width="226.077" height="231.059" x="320.712" y="969.677"/><text style="font-style:normal;font-variant:normal;font-weight:400;font-stretch:normal;line-height:0%;font-family:Overpass;-inkscape-font-specification:Overpass;text-align:start;text-anchor:start;fill:#fff" id="text11338" x="340.712" y="1009.677" xml:space="preserve"><tspan style="font-style:normal;font-variant:normal;font-weight:700;font-stretch:normal;font-size:16px;line-height:100%;font-family:Overpass;-inkscape-font-specification:'Overpass, Bold';font-variant-ligatures:none;font-variant-caps:normal;font-variant-numeric:normal;text-align:start;writing-mode:lr-tb;text-anchor:start" id="tspan11336" x="340.712" y="1009.677">Authorization</tspan></text><rect id="rect11340" width="187" height="32" x="340.712" y="1029.677" style="fill:#e5e5e5;fill-opacity:1;stroke:#3f9c35;stroke-width:.7559287"/><text style="font-style:normal;font-variant:normal;font-weight:700;font-stretch:normal;line-height:0%;font-family:Overpass;-inkscape-font-specification:'Overpass Bold';text-align:start;text-anchor:start;fill:#595959" id="text11344" x="358.619" y="1051.357" xml:space="preserve"><tspan style="font-style:normal;font-variant:normal;font-weight:400;font-stretch:normal;font-size:16px;line-height:100%;font-family:Overpass;-inkscape-font-specification:'Overpass, Normal';font-variant-ligatures:none;font-variant-caps:normal;font-variant-numeric:normal;text-align:start;writing-mode:lr-tb;text-anchor:start" id="tspan11342" x="358.619" y="1051.357">Resources</tspan></text><rect style="fill:#e5e5e5;fill-opacity:1;stroke:#3f9c35;stroke-width:.7559287" id="rect11346" width="187" height="32" x="340.712" y="1069.677"/><text id="text11350" x="358.619" y="1091.357" xml:space="preserve" style="font-style:normal;font-variant:normal;font-weight:700;font-stretch:normal;line-height:0%;font-family:Overpass;-inkscape-font-specification:'Overpass Bold';text-align:start;text-anchor:start;fill:#595959"><tspan id="tspan11348" x="358.619" y="1091.357" style="font-style:normal;font-variant:normal;font-weight:400;font-stretch:normal;font-size:16px;line-height:100%;font-family:Overpass;-inkscape-font-specification:'Overpass, Normal';font-variant-ligatures:none;font-variant-caps:normal;font-variant-numeric:normal;text-align:start;writing-mode:lr-tb;text-anchor:start">Scopes</tspan></text><rect style="fill:#e5e5e5;fill-opacity:1;stroke:#3f9c35;stroke-width:.7559287" id="rect11352" width="187" height="32" x="340.712" y="1110.433"/><text id="text11356" x="358.619" y="1132.113" xml:space="preserve" style="font-style:normal;font-variant:normal;font-weight:700;font-stretch:normal;line-height:0%;font-family:Overpass;-inkscape-font-specification:'Overpass Bold';text-align:start;text-anchor:start;fill:#595959"><tspan id="tspan11354" x="358.619" y="1132.113" style="font-style:normal;font-variant:normal;font-weight:400;font-stretch:normal;font-size:16px;line-height:100%;font-family:Overpass;-inkscape-font-specification:'Overpass, Normal';font-variant-ligatures:none;font-variant-caps:normal;font-variant-numeric:normal;text-align:start;writing-mode:lr-tb;text-anchor:start">Policies</tspan></text><rect id="rect11358" width="187" height="32" x="340.712" y="1150.433" style="fill:#e5e5e5;fill-opacity:1;stroke:#3f9c35;stroke-width:.7559287"/><text style="font-style:normal;font-variant:normal;font-weight:700;font-stretch:normal;line-height:0%;font-family:Overpass;-inkscape-font-specification:'Overpass Bold';text-align:start;text-anchor:start;fill:#595959" id="text11362" x="358.619" y="1172.113" xml:space="preserve"><tspan style="font-style:normal;font-variant:normal;font-weight:400;font-stretch:normal;font-size:16px;line-height:100%;font-family:Overpass;-inkscape-font-specification:'Overpass, Normal';font-variant-ligatures:none;font-variant-caps:normal;font-variant-numeric:normal;text-align:start;writing-mode:lr-tb;text-anchor:start" id="tspan11360" x="358.619" y="1172.113">Permissions</tspan></text></g><path style="fill:#595959;stroke:#595959;stroke-width:1px;stroke-linecap:butt;stroke-linejoin:miter;stroke-opacity:1;marker-end:url(#marker13294)" id="path13290" d="m 687.62646,625.50592 v 50.28064"/><path style="fill:none;stroke:#595959;stroke-width:1px;stroke-linecap:butt;stroke-linejoin:miter;stroke-opacity:1;marker-end:url(#marker14008)" id="path14004" d="m 304.61698,539.44501 h -25.22636 v 346.36805 h 24.13481"/><path id="path16973" d="m 529.27428,709.66153 h 46.28064" style="fill:#595959;stroke:#595959;stroke-width:1px;stroke-linecap:butt;stroke-linejoin:miter;stroke-opacity:1;marker-end:url(#marker16977)"/><path id="path18393" d="m 800.68274,840.17202 h 17.00853 v 43.82879 h -31.14996 v -20.11415" style="fill:none;stroke:#595959;stroke-width:1px;stroke-linecap:butt;stroke-linejoin:miter;stroke-opacity:1;marker-end:url(#marker18397)"/></g></svg>